<svg width="18" height="18" viewBox="0 0 18 18" fill="none" xmlns="http://www.w3.org/2000/svg">
<path d="M12.75 13.5V12M9 13.5V11.25M5.25 13.5V9.75M4.5 5.25C6.89775 7.701 9.9255 8.31075 12.8557 7.494M11.766 6.354L13.3215 7.116C13.506 7.20675 13.5555 7.416 13.4325 7.584L12.3952 9" stroke="white" stroke-width="1.5" stroke-linecap="round" stroke-linejoin="round"/>
<path d="M1.875 9C1.875 5.6415 1.875 3.9615 2.91825 2.91825C3.9615 1.875 5.64075 1.875 9 1.875C12.3585 1.875 14.0385 1.875 15.0817 2.91825C16.125 3.9615 16.125 5.64075 16.125 9C16.125 12.3585 16.125 14.0385 15.0817 15.0817C14.0385 16.125 12.3593 16.125 9 16.125C5.6415 16.125 3.9615 16.125 2.91825 15.0817C1.875 14.0385 1.875 12.3593 1.875 9Z" stroke="white" stroke-width="1.5" stroke-linecap="round" stroke-linejoin="round"/>
</svg>
