<svg width="17" height="18" viewBox="0 0 17 18" fill="none" xmlns="http://www.w3.org/2000/svg">
<path d="M2.83284 0C3.02067 0 3.20081 0.0677182 3.33362 0.188258C3.46644 0.308797 3.54105 0.472283 3.54105 0.642751V1.2855H6.37389V0.642751C6.37389 0.472283 6.44851 0.308797 6.58132 0.188258C6.71414 0.0677182 6.89427 0 7.0821 0C7.26993 0 7.45007 0.0677182 7.58288 0.188258C7.7157 0.308797 7.79031 0.472283 7.79031 0.642751V1.2855H10.6232V0.642751C10.6232 0.472283 10.6978 0.308797 10.8306 0.188258C10.9634 0.0677182 11.1435 0 11.3314 0C11.5192 0 11.6993 0.0677182 11.8321 0.188258C11.965 0.308797 12.0396 0.472283 12.0396 0.642751V1.2855C12.6031 1.2855 13.1435 1.48866 13.5419 1.85028C13.9404 2.21189 14.1642 2.70235 14.1642 3.21376V6.47379C13.6564 6.55405 13.1735 6.73201 12.7478 6.99571V3.21376C12.7478 3.04329 12.6732 2.8798 12.5404 2.75926C12.4075 2.63872 12.2274 2.57101 12.0396 2.57101H2.12463C1.9368 2.57101 1.75667 2.63872 1.62385 2.75926C1.49104 2.8798 1.41642 3.04329 1.41642 3.21376V16.0688C1.41642 16.2393 1.49104 16.4027 1.62385 16.5233C1.75667 16.6438 1.9368 16.7115 2.12463 16.7115H4.31583V16.7141C4.19603 17.1401 4.22979 17.5897 4.41215 17.997H2.12463C1.56114 17.997 1.02074 17.7939 0.62229 17.4323C0.223844 17.0707 0 16.5802 0 16.0688V3.21376C0 2.70235 0.223844 2.21189 0.62229 1.85028C1.02074 1.48866 1.56114 1.2855 2.12463 1.2855V0.642751C2.12463 0.472283 2.19925 0.308797 2.33206 0.188258C2.46488 0.0677182 2.64501 0 2.83284 0ZM9.91494 8.99852C10.0665 8.99852 10.2067 9.04223 10.3229 9.1155L9.03393 10.284H4.24926C4.06143 10.284 3.8813 10.2163 3.74848 10.0958C3.61567 9.97523 3.54105 9.81174 3.54105 9.64127C3.54105 9.4708 3.61567 9.30732 3.74848 9.18678C3.8813 9.06624 4.06143 8.99852 4.24926 8.99852H9.91494ZM5.66002 13.4142C5.63766 13.2595 5.55405 13.1174 5.42478 13.0145C5.29551 12.9117 5.12941 12.855 4.95747 12.855H4.24926C4.06143 12.855 3.8813 12.9227 3.74848 13.0433C3.61567 13.1638 3.54105 13.3273 3.54105 13.4978C3.54105 13.6682 3.61567 13.8317 3.74848 13.9523C3.8813 14.0728 4.06143 14.1405 4.24926 14.1405H4.95747C5.03301 14.1407 5.10809 14.1298 5.17985 14.1084C5.31772 13.865 5.47777 13.6336 5.66002 13.4142ZM4.24926 5.14201C4.06143 5.14201 3.8813 5.20973 3.74848 5.33027C3.61567 5.45081 3.54105 5.61429 3.54105 5.78476C3.54105 5.95523 3.61567 6.11872 3.74848 6.23926C3.8813 6.3598 4.06143 6.42751 4.24926 6.42751H9.91494C10.1028 6.42751 10.2829 6.3598 10.4157 6.23926C10.5485 6.11872 10.6232 5.95523 10.6232 5.78476C10.6232 5.61429 10.5485 5.45081 10.4157 5.33027C10.2829 5.20973 10.1028 5.14201 9.91494 5.14201H4.24926ZM13.2265 8.29792C13.6411 7.9217 14.2033 7.71034 14.7896 7.71034C15.3758 7.71034 15.938 7.9217 16.3526 8.29792C16.7671 8.67414 17 9.18441 17 9.71647C17 10.2485 16.7671 10.7588 16.3526 11.135L10.2775 16.6473C9.77259 17.1038 9.1414 17.4284 8.45036 17.587L6.73508 17.9765C6.59027 18.0094 6.43852 18.0077 6.29464 17.9716C6.15075 17.9355 6.01963 17.8661 5.91407 17.7703C5.80851 17.6745 5.73209 17.5555 5.69229 17.4249C5.65248 17.2943 5.65063 17.1566 5.68693 17.0252L6.11752 15.4697C6.29032 14.8411 6.64726 14.2678 7.15151 13.8114L13.2265 8.29792Z" fill="#818888"/>
</svg>
