<svg width="19" height="19" viewBox="0 0 19 19" fill="none" xmlns="http://www.w3.org/2000/svg">
<mask id="path-1-inside-1_684_974" fill="white">
<path d="M9.5 0.633374L9.91167 0.152041C9.79695 0.0539196 9.65096 0 9.5 0C9.34904 0 9.20305 0.0539196 9.08833 0.152041L9.5 0.633374ZM0.633333 8.23336L0.221667 7.75202L0 7.94202V8.23336H0.633333ZM6.96667 18.3667V19C7.13464 19 7.29573 18.9333 7.4145 18.8145C7.53327 18.6957 7.6 18.5346 7.6 18.3667H6.96667ZM12.0333 18.3667H11.4C11.4 18.5346 11.4667 18.6957 11.5855 18.8145C11.7043 18.9333 11.8654 19 12.0333 19V18.3667ZM18.3667 8.23336H19V7.94202L18.7783 7.75202L18.3667 8.23336ZM1.9 19H6.96667V17.7333H1.9V19ZM18.7783 7.75202L9.91167 0.152041L9.08833 1.11471L17.955 8.71469L18.7783 7.75202ZM9.08833 0.152041L0.221667 7.75202L1.045 8.71469L9.91167 1.11471L9.08833 0.152041ZM7.6 18.3667V14.5667H6.33333V18.3667H7.6ZM11.4 14.5667V18.3667H12.6667V14.5667H11.4ZM12.0333 19H17.1V17.7333H12.0333V19ZM19 17.1V8.23336H17.7333V17.1H19ZM0 8.23336V17.1H1.26667V8.23336H0ZM9.5 12.6667C10.0039 12.6667 10.4872 12.8669 10.8435 13.2232C11.1998 13.5795 11.4 14.0628 11.4 14.5667H12.6667C12.6667 13.7268 12.333 12.9214 11.7392 12.3275C11.1453 11.7336 10.3399 11.4 9.5 11.4V12.6667ZM9.5 11.4C8.66015 11.4 7.85469 11.7336 7.26083 12.3275C6.66696 12.9214 6.33333 13.7268 6.33333 14.5667H7.6C7.6 14.0628 7.80018 13.5795 8.1565 13.2232C8.51282 12.8669 8.99609 12.6667 9.5 12.6667V11.4ZM17.1 19C17.6039 19 18.0872 18.7998 18.4435 18.4435C18.7998 18.0872 19 17.6039 19 17.1H17.7333C17.7333 17.268 17.6666 17.4291 17.5478 17.5478C17.4291 17.6666 17.268 17.7333 17.1 17.7333V19ZM1.9 17.7333C1.73203 17.7333 1.57094 17.6666 1.45217 17.5478C1.33339 17.4291 1.26667 17.268 1.26667 17.1H0C0 17.6039 0.200178 18.0872 0.556497 18.4435C0.912816 18.7998 1.39609 19 1.9 19V17.7333Z"/>
</mask>
<path d="M9.5 0.633374L9.91167 0.152041C9.79695 0.0539196 9.65096 0 9.5 0C9.34904 0 9.20305 0.0539196 9.08833 0.152041L9.5 0.633374ZM0.633333 8.23336L0.221667 7.75202L0 7.94202V8.23336H0.633333ZM6.96667 18.3667V19C7.13464 19 7.29573 18.9333 7.4145 18.8145C7.53327 18.6957 7.6 18.5346 7.6 18.3667H6.96667ZM12.0333 18.3667H11.4C11.4 18.5346 11.4667 18.6957 11.5855 18.8145C11.7043 18.9333 11.8654 19 12.0333 19V18.3667ZM18.3667 8.23336H19V7.94202L18.7783 7.75202L18.3667 8.23336ZM1.9 19H6.96667V17.7333H1.9V19ZM18.7783 7.75202L9.91167 0.152041L9.08833 1.11471L17.955 8.71469L18.7783 7.75202ZM9.08833 0.152041L0.221667 7.75202L1.045 8.71469L9.91167 1.11471L9.08833 0.152041ZM7.6 18.3667V14.5667H6.33333V18.3667H7.6ZM11.4 14.5667V18.3667H12.6667V14.5667H11.4ZM12.0333 19H17.1V17.7333H12.0333V19ZM19 17.1V8.23336H17.7333V17.1H19ZM0 8.23336V17.1H1.26667V8.23336H0ZM9.5 12.6667C10.0039 12.6667 10.4872 12.8669 10.8435 13.2232C11.1998 13.5795 11.4 14.0628 11.4 14.5667H12.6667C12.6667 13.7268 12.333 12.9214 11.7392 12.3275C11.1453 11.7336 10.3399 11.4 9.5 11.4V12.6667ZM9.5 11.4C8.66015 11.4 7.85469 11.7336 7.26083 12.3275C6.66696 12.9214 6.33333 13.7268 6.33333 14.5667H7.6C7.6 14.0628 7.80018 13.5795 8.1565 13.2232C8.51282 12.8669 8.99609 12.6667 9.5 12.6667V11.4ZM17.1 19C17.6039 19 18.0872 18.7998 18.4435 18.4435C18.7998 18.0872 19 17.6039 19 17.1H17.7333C17.7333 17.268 17.6666 17.4291 17.5478 17.5478C17.4291 17.6666 17.268 17.7333 17.1 17.7333V19ZM1.9 17.7333C1.73203 17.7333 1.57094 17.6666 1.45217 17.5478C1.33339 17.4291 1.26667 17.268 1.26667 17.1H0C0 17.6039 0.200178 18.0872 0.556497 18.4435C0.912816 18.7998 1.39609 19 1.9 19V17.7333Z" fill="#818888"/>
<path d="M0.9 17.7333V19H2.9V17.7333H0.9ZM7.6 13.5667H6.33333V15.5667H7.6V13.5667ZM12.6667 13.5667H11.4V15.5667H12.6667V13.5667ZM18.1 19V17.7333H16.1V19H18.1ZM17.7333 18.1H19V16.1H17.7333V18.1ZM0 18.1H1.26667V16.1H0V18.1ZM8.5 11.4V12.6667H10.5V11.4H8.5ZM9.5 0.633374L7.98008 1.93331L9.5 3.71045L11.0199 1.93331L9.5 0.633374ZM9.91167 0.152041L11.2132 -1.36647L11.2117 -1.36783L9.91167 0.152041ZM9.08833 0.152041L7.78833 -1.36783L7.78675 -1.36647L9.08833 0.152041ZM0.633333 8.23336V10.2334H4.97558L2.15326 6.93342L0.633333 8.23336ZM0.221667 7.75202L-1.07991 6.23351L-1.07991 6.23351L0.221667 7.75202ZM0 7.94202L-1.30158 6.42351L-2 7.02215V7.94202H0ZM6.96667 18.3667V16.3667H4.96667V18.3667H6.96667ZM12.0333 18.3667H14.0333V16.3667H12.0333V18.3667ZM18.3667 8.23336L16.8467 6.93342L14.0244 10.2334H18.3667V8.23336ZM19 7.94202H21V7.02215L20.3016 6.42351L19 7.94202ZM1.9 19V21V19ZM6.96667 17.7333H8.96667V15.7333H6.96667V17.7333ZM9.08833 1.11471L7.56841 -0.18523L6.26988 1.33305L7.78675 2.63322L9.08833 1.11471ZM17.955 8.71469L16.6534 10.2332L18.1736 11.5362L19.4749 10.0146L17.955 8.71469ZM1.045 8.71469L-0.474923 10.0146L0.826422 11.5362L2.34658 10.2332L1.045 8.71469ZM9.91167 1.11471L11.2132 2.63322L12.7301 1.33305L11.4316 -0.18523L9.91167 1.11471ZM6.33333 14.5667H4.33333H6.33333ZM6.33333 18.3667H4.33333V20.3667H6.33333V18.3667ZM11.4 14.5667L13.4 14.5667L11.4 14.5667ZM12.6667 18.3667V20.3667H14.6667V18.3667H12.6667ZM17.1 19L17.1 21L17.1 19ZM12.0333 17.7333V15.7333H10.0333V17.7333H12.0333ZM19 17.1H21H19ZM17.7333 8.23336V6.23336H15.7333V8.23336H17.7333ZM0 17.1H-2H0ZM1.26667 17.1L-0.733333 17.1L1.26667 17.1ZM1.26667 8.23336H3.26667V6.23336H1.26667V8.23336ZM9.5 12.6667L9.5 10.6667L9.5 12.6667ZM9.5 11.4L9.5 9.40002L9.5 11.4ZM11.0199 1.93331L11.4316 1.45198L8.39174 -1.14789L7.98008 -0.666563L11.0199 1.93331ZM11.2117 -1.36783C10.7347 -1.77581 10.1277 -2 9.5 -2V2C9.17425 2 8.85922 1.88365 8.61167 1.67191L11.2117 -1.36783ZM9.5 -2C8.87234 -2 8.26532 -1.77581 7.78834 -1.36783L10.3883 1.67191C10.1408 1.88365 9.82575 2 9.5 2V-2ZM7.56841 1.45198L7.98008 1.93331L11.0199 -0.666563L10.6083 -1.14789L7.56841 1.45198ZM2.15326 6.93342L1.74159 6.45209L-1.29826 9.05196L-0.886589 9.53329L2.15326 6.93342ZM-1.07991 6.23351L-1.30158 6.42351L1.30158 9.46054L1.52325 9.27054L-1.07991 6.23351ZM-2 7.94202V8.23336H2V7.94202H-2ZM0 10.2334H0.633333V6.23336H0V10.2334ZM4.96667 18.3667V19H8.96667V18.3667H4.96667ZM6.96667 21C7.66507 21 8.33486 20.7226 8.82871 20.2287L6.00029 17.4003C6.25659 17.144 6.60421 17 6.96667 17V21ZM8.82871 20.2287C9.32256 19.7349 9.6 19.0651 9.6 18.3667H5.6C5.6 18.0042 5.74399 17.6566 6.00029 17.4003L8.82871 20.2287ZM7.6 16.3667H6.96667V20.3667H7.6V16.3667ZM12.0333 16.3667H11.4V20.3667H12.0333V16.3667ZM9.4 18.3667C9.4 19.0651 9.67744 19.7349 10.1713 20.2287L12.9997 17.4003C13.256 17.6566 13.4 18.0042 13.4 18.3667H9.4ZM10.1713 20.2287C10.6651 20.7226 11.3349 21 12.0333 21V17C12.3958 17 12.7434 17.144 12.9997 17.4003L10.1713 20.2287ZM14.0333 19V18.3667H10.0333V19H14.0333ZM18.3667 10.2334H19V6.23336H18.3667V10.2334ZM21 8.23336V7.94202H17V8.23336H21ZM20.3016 6.42351L20.0799 6.23351L17.4768 9.27054L17.6984 9.46054L20.3016 6.42351ZM17.2584 6.45209L16.8467 6.93342L19.8866 9.53329L20.2983 9.05196L17.2584 6.45209ZM1.9 21H6.96667V17H1.9V21ZM8.96667 19V17.7333H4.96667V19H8.96667ZM6.96667 15.7333H1.9V19.7333H6.96667V15.7333ZM20.0799 6.23351L11.2132 -1.36647L8.61009 1.67056L17.4768 9.27054L20.0799 6.23351ZM8.39174 -1.14789L7.56841 -0.18523L10.6083 2.41464L11.4316 1.45198L8.39174 -1.14789ZM7.78675 2.63322L16.6534 10.2332L19.2566 7.19617L10.3899 -0.403809L7.78675 2.63322ZM19.4749 10.0146L20.2983 9.05196L17.2584 6.45209L16.4351 7.41475L19.4749 10.0146ZM7.78675 -1.36647L-1.07991 6.23351L1.52325 9.27054L10.3899 1.67056L7.78675 -1.36647ZM-1.29826 9.05196L-0.474923 10.0146L2.56492 7.41475L1.74159 6.45209L-1.29826 9.05196ZM2.34658 10.2332L11.2132 2.63322L8.61009 -0.403809L-0.256581 7.19617L2.34658 10.2332ZM11.4316 -0.18523L10.6083 -1.14789L7.56841 1.45198L8.39174 2.41464L11.4316 -0.18523ZM9.6 18.3667V14.5667H5.6V18.3667H9.6ZM4.33333 14.5667V18.3667H8.33333V14.5667H4.33333ZM6.33333 20.3667H7.6V16.3667H6.33333V20.3667ZM9.4 14.5667V18.3667H13.4V14.5667H9.4ZM11.4 20.3667H12.6667V16.3667H11.4V20.3667ZM14.6667 18.3667V14.5667H10.6667V18.3667H14.6667ZM12.0333 21H17.1V17H12.0333V21ZM17.1 15.7333H12.0333V19.7333H17.1V15.7333ZM10.0333 17.7333V19H14.0333V17.7333H10.0333ZM21 17.1V8.23336H17V17.1H21ZM19 6.23336H17.7333V10.2334H19V6.23336ZM15.7333 8.23336V17.1H19.7333V8.23336H15.7333ZM-2 8.23336V17.1H2V8.23336H-2ZM3.26667 17.1V8.23336H-0.733333V17.1H3.26667ZM1.26667 6.23336H0V10.2334H1.26667V6.23336ZM9.5 14.6667C9.47348 14.6667 9.44805 14.6561 9.42929 14.6374L12.2577 11.809C11.5263 11.0776 10.5343 10.6667 9.5 10.6667L9.5 14.6667ZM9.42929 14.6374C9.41054 14.6186 9.4 14.5932 9.4 14.5667L13.4 14.5667C13.4 13.5323 12.9891 12.5404 12.2577 11.809L9.42929 14.6374ZM14.6667 14.5667C14.6667 13.1964 14.1223 11.8822 13.1534 10.9133L10.325 13.7417C10.5438 13.9605 10.6667 14.2573 10.6667 14.5667H14.6667ZM13.1534 10.9133C12.1844 9.94436 10.8703 9.40002 9.5 9.40002V13.4C9.80942 13.4 10.1062 13.5229 10.325 13.7417L13.1534 10.9133ZM9.5 9.40002C8.12972 9.40002 6.81555 9.94436 5.84662 10.9133L8.67504 13.7417C8.89383 13.5229 9.19058 13.4 9.5 13.4L9.5 9.40002ZM5.84662 10.9133C4.87768 11.8822 4.33333 13.1964 4.33333 14.5667L8.33333 14.5667C8.33333 14.2573 8.45625 13.9605 8.67504 13.7417L5.84662 10.9133ZM9.6 14.5667C9.6 14.5932 9.58946 14.6186 9.57071 14.6374L6.74228 11.809C6.01089 12.5404 5.6 13.5323 5.6 14.5667H9.6ZM9.57071 14.6374C9.55195 14.6561 9.52652 14.6667 9.5 14.6667L9.5 10.6667C8.46566 10.6667 7.47368 11.0776 6.74228 11.809L9.57071 14.6374ZM17.1 21C18.1343 21 19.1263 20.5891 19.8577 19.8577L17.0293 17.0293C17.048 17.0105 17.0735 17 17.1 17L17.1 21ZM19.8577 19.8577C20.5891 19.1263 21 18.1343 21 17.1L17 17.1C17 17.0735 17.0105 17.048 17.0293 17.0293L19.8577 19.8577ZM15.7333 17.1C15.7333 16.7375 15.8773 16.3899 16.1336 16.1336L18.962 18.9621C19.4559 18.4682 19.7333 17.7984 19.7333 17.1H15.7333ZM16.1336 16.1336C16.3899 15.8773 16.7375 15.7333 17.1 15.7333V19.7333C17.7984 19.7333 18.4682 19.4559 18.962 18.9621L16.1336 16.1336ZM1.9 15.7333C2.26246 15.7333 2.61007 15.8773 2.86638 16.1336L0.0379536 18.9621C0.531803 19.4559 1.2016 19.7333 1.9 19.7333V15.7333ZM2.86638 16.1336C3.12268 16.3899 3.26667 16.7375 3.26667 17.1L-0.733333 17.1C-0.733333 17.7984 -0.455894 18.4682 0.0379536 18.9621L2.86638 16.1336ZM-2 17.1C-2 18.1343 -1.58911 19.1263 -0.857715 19.8577L1.97071 17.0293C1.98946 17.048 2 17.0735 2 17.1H-2ZM-0.857715 19.8577C-0.126322 20.5891 0.865658 21 1.9 21L1.9 17C1.92652 17 1.95195 17.0105 1.97071 17.0293L-0.857715 19.8577Z" fill="#818888" mask="url(#path-1-inside-1_684_974)"/>
</svg>
