<svg width="24" height="24" viewBox="0 0 24 24" fill="none" xmlns="http://www.w3.org/2000/svg">
<path fill-rule="evenodd" clip-rule="evenodd" d="M17.861 3.1637L18.021 3.2177L19.223 3.6177C19.686 3.7727 20.093 3.9077 20.414 4.0577C20.762 4.2197 21.081 4.4277 21.325 4.7667C21.569 5.1047 21.666 5.4737 21.71 5.8547C21.75 6.2077 21.75 6.6357 21.75 7.1247V15.3367C21.75 16.0347 21.75 16.6237 21.696 17.0897C21.64 17.5737 21.514 18.0517 21.161 18.4377C20.952 18.6665 20.6981 18.8496 20.415 18.9757C19.937 19.1877 19.444 19.1557 18.967 19.0567C18.507 18.9607 17.949 18.7747 17.287 18.5537L17.244 18.5397C16.124 18.1657 15.739 18.0497 15.367 18.0627C15.2184 18.0678 15.0707 18.0875 14.926 18.1217C14.563 18.2067 14.223 18.4207 13.24 19.0757L11.858 19.9977L11.718 20.0907C10.656 20.7997 9.918 21.2917 9.054 21.4077C8.191 21.5237 7.349 21.2427 6.139 20.8377L5.979 20.7847L4.777 20.3847C4.314 20.2297 3.907 20.0947 3.586 19.9447C3.238 19.7827 2.919 19.5747 2.675 19.2347C2.431 18.8967 2.334 18.5287 2.29 18.1467C2.25 17.7937 2.25 17.3667 2.25 16.8777V8.6657C2.25 7.9667 2.25 7.3777 2.304 6.9127C2.36 6.4287 2.486 5.9507 2.839 5.5647C3.04797 5.33592 3.30194 5.15276 3.585 5.0267C4.063 4.8137 4.557 4.8457 5.033 4.9457C5.493 5.0407 6.051 5.2277 6.713 5.4487L6.756 5.4627C7.876 5.8357 8.261 5.9527 8.634 5.9397C8.78225 5.93459 8.92964 5.91483 9.074 5.8807C9.437 5.7947 9.777 5.5807 10.76 4.9267L12.142 4.0047L12.282 3.9107C13.344 3.2027 14.082 2.7107 14.945 2.5947C15.809 2.4787 16.651 2.7587 17.861 3.1637ZM15.75 4.1077V16.5807C16.286 16.6387 16.85 16.8267 17.593 17.0747L17.718 17.1167C18.435 17.3557 18.91 17.5127 19.273 17.5887C19.629 17.6627 19.75 17.6287 19.805 17.6047C19.8994 17.5628 19.9842 17.5019 20.054 17.4257C20.094 17.3817 20.164 17.2767 20.206 16.9157C20.249 16.5477 20.25 16.0467 20.25 15.2917V7.1637C20.25 6.6237 20.249 6.2837 20.22 6.0257C20.192 5.7867 20.148 5.6977 20.108 5.6437C20.069 5.5897 19.999 5.5187 19.782 5.4177C19.546 5.3077 19.222 5.1997 18.712 5.0287L17.547 4.6407C16.66 4.3447 16.134 4.1777 15.75 4.1077ZM14.25 16.7607V4.4347C13.939 4.6147 13.54 4.8757 12.974 5.2527L11.592 6.1747L11.482 6.2477C10.794 6.7077 10.281 7.0497 9.75 7.2417V19.5677C10.061 19.3877 10.46 19.1257 11.026 18.7487L12.408 17.8277L12.518 17.7547C13.206 17.2947 13.719 16.9527 14.25 16.7607ZM8.25 19.8957V7.4207C7.714 7.3627 7.15 7.1747 6.407 6.9267L6.282 6.8847C5.565 6.6457 5.09 6.4887 4.726 6.4127C4.371 6.3387 4.25 6.3717 4.196 6.3957C4.10111 6.43776 4.01598 6.49905 3.946 6.5757C3.906 6.6187 3.836 6.7237 3.794 7.0847C3.751 7.4527 3.75 7.9547 3.75 8.7097V16.8377C3.75 17.3777 3.751 17.7177 3.78 17.9757C3.808 18.2147 3.852 18.3027 3.892 18.3577C3.931 18.4117 4.001 18.4827 4.218 18.5837C4.454 18.6937 4.778 18.8017 5.288 18.9727L6.453 19.3607C7.34 19.6557 7.865 19.8237 8.25 19.8947" fill="white"/>
</svg>
