<svg width="46" height="46" viewBox="0 0 46 46" fill="none" xmlns="http://www.w3.org/2000/svg">
<circle cx="23" cy="23" r="22.5" fill="#FDFAFA" stroke="#0C0C0C"/>
<path d="M27.4059 11.0115C27.3588 10.9569 25.6627 11.0331 24.1867 12.6963C22.7106 14.358 22.9377 16.2641 22.9709 16.313C23.0042 16.3619 25.0756 16.438 26.3979 14.5046C27.7202 12.5712 27.453 11.0676 27.4059 11.0115M31.9946 27.8776C31.9281 27.7396 28.7753 26.1037 29.0689 22.9585C29.3624 19.8133 31.3881 18.9493 31.42 18.8559C31.4518 18.7625 30.5934 17.7203 29.6837 17.1927C29.0156 16.8211 28.2764 16.6081 27.5195 16.5689C27.3699 16.5645 26.8507 16.4323 25.7831 16.7356C25.0797 16.9354 23.4943 17.5823 23.0582 17.6082C22.6206 17.634 21.3191 16.8578 19.9192 16.6522C19.0234 16.4725 18.0735 16.8405 17.3936 17.1237C16.7152 17.4055 15.4247 18.2076 14.5219 20.3394C13.6191 22.4698 14.0913 25.845 14.4291 26.8944C14.767 27.9437 15.2945 29.6601 16.1918 30.9136C16.9893 32.3281 18.0472 33.3099 18.4889 33.6434C18.9306 33.9769 20.1768 34.1983 21.0408 33.7397C21.7358 33.297 22.9903 33.0425 23.486 33.0612C23.9803 33.0799 24.9551 33.2826 25.9534 33.836C26.7441 34.1192 27.4918 34.0013 28.2409 33.6851C28.9899 33.3674 30.0741 32.1628 31.3397 29.7205C31.8197 28.5849 32.038 27.9706 31.9946 27.8776" fill="black"/>
</svg>
