<svg width="350" height="301" viewBox="0 0 350 301" fill="none" xmlns="http://www.w3.org/2000/svg">
<rect width="350" height="301" rx="40" fill="#F6F6F6"/>
<rect x="0.5" y="0.5" width="349" height="300" rx="39.5" stroke="#4D91E0" stroke-opacity="0.29"/>
<circle cx="179" cy="122" r="70" fill="url(#paint0_linear_255_2321)"/>
<circle cx="102" cy="42" r="10" fill="#00BFFF"/>
<circle cx="188.5" cy="36.5" r="2.5" fill="#00BFFF"/>
<circle cx="92" cy="165" r="5" fill="#00BFFF"/>
<circle cx="260.5" cy="59.5" r="7.5" fill="#00BFFF"/>
<circle cx="247.5" cy="192.5" r="2.5" fill="#00BFFF"/>
<circle cx="252.5" cy="142.5" r="2.5" fill="#00BFFF"/>
<circle cx="204" cy="203" r="1" fill="#00BFFF"/>
<circle cx="144.5" cy="208.5" r="3.5" fill="#00BFFF"/>
<circle cx="83" cy="107" r="1" fill="url(#paint1_linear_255_2321)"/>
<path d="M192.02 91.999C202.19 91.999 209 99.139 209 109.759V134.272C209 144.859 202.19 151.999 192.02 151.999H166.01C155.84 151.999 149 144.859 149 134.272V109.759C149 99.139 155.84 91.999 166.01 91.999H192.02ZM191.54 112.999C190.52 111.979 188.84 111.979 187.82 112.999L175.43 125.389L170.18 120.139C169.16 119.119 167.48 119.119 166.46 120.139C165.44 121.159 165.44 122.809 166.46 123.859L173.6 130.969C174.11 131.479 174.77 131.719 175.43 131.719C176.12 131.719 176.78 131.479 177.29 130.969L191.54 116.719C192.56 115.699 192.56 114.049 191.54 112.999Z" fill="white"/>
<path d="M91.9722 260C91.4442 260 91.0362 259.864 90.7482 259.592C90.4762 259.304 90.3402 258.896 90.3402 258.368V244.712C90.3402 244.184 90.4762 243.784 90.7482 243.512C91.0362 243.224 91.4442 243.08 91.9722 243.08H97.7322C98.9162 243.08 99.9242 243.256 100.756 243.608C101.588 243.96 102.22 244.464 102.652 245.12C103.1 245.776 103.324 246.56 103.324 247.472C103.324 248.496 103.028 249.36 102.436 250.064C101.844 250.768 101.036 251.24 100.012 251.48V251.12C101.196 251.296 102.116 251.744 102.772 252.464C103.428 253.184 103.756 254.12 103.756 255.272C103.756 256.776 103.244 257.944 102.22 258.776C101.212 259.592 99.8042 260 97.9962 260H91.9722ZM93.2922 257.672H97.6122C98.7002 257.672 99.5002 257.464 100.012 257.048C100.524 256.616 100.78 255.976 100.78 255.128C100.78 254.264 100.524 253.624 100.012 253.208C99.5002 252.792 98.7002 252.584 97.6122 252.584H93.2922V257.672ZM93.2922 250.256H97.2042C98.2602 250.256 99.0442 250.056 99.5562 249.656C100.084 249.24 100.348 248.632 100.348 247.832C100.348 247.032 100.084 246.432 99.5562 246.032C99.0442 245.616 98.2602 245.408 97.2042 245.408H93.2922V250.256ZM111.928 260.24C110.712 260.24 109.656 259.992 108.76 259.496C107.864 259 107.168 258.296 106.672 257.384C106.176 256.456 105.928 255.368 105.928 254.12C105.928 253.176 106.064 252.336 106.336 251.6C106.624 250.848 107.032 250.208 107.56 249.68C108.088 249.136 108.72 248.728 109.456 248.456C110.192 248.168 111.016 248.024 111.928 248.024C113.144 248.024 114.2 248.272 115.096 248.768C115.992 249.264 116.688 249.968 117.184 250.88C117.68 251.792 117.928 252.872 117.928 254.12C117.928 255.064 117.784 255.912 117.496 256.664C117.224 257.416 116.824 258.064 116.296 258.608C115.768 259.136 115.136 259.544 114.4 259.832C113.664 260.104 112.84 260.24 111.928 260.24ZM111.928 257.96C112.52 257.96 113.04 257.816 113.488 257.528C113.936 257.24 114.28 256.816 114.52 256.256C114.776 255.68 114.904 254.968 114.904 254.12C114.904 252.84 114.632 251.888 114.088 251.264C113.544 250.624 112.824 250.304 111.928 250.304C111.336 250.304 110.816 250.448 110.368 250.736C109.92 251.008 109.568 251.432 109.312 252.008C109.072 252.568 108.952 253.272 108.952 254.12C108.952 255.384 109.224 256.344 109.768 257C110.312 257.64 111.032 257.96 111.928 257.96ZM125.756 260.24C124.54 260.24 123.484 259.992 122.588 259.496C121.692 259 120.996 258.296 120.5 257.384C120.004 256.456 119.756 255.368 119.756 254.12C119.756 253.176 119.892 252.336 120.164 251.6C120.452 250.848 120.86 250.208 121.388 249.68C121.916 249.136 122.548 248.728 123.284 248.456C124.02 248.168 124.844 248.024 125.756 248.024C126.972 248.024 128.028 248.272 128.924 248.768C129.82 249.264 130.516 249.968 131.012 250.88C131.508 251.792 131.756 252.872 131.756 254.12C131.756 255.064 131.612 255.912 131.324 256.664C131.052 257.416 130.652 258.064 130.124 258.608C129.596 259.136 128.964 259.544 128.228 259.832C127.492 260.104 126.668 260.24 125.756 260.24ZM125.756 257.96C126.348 257.96 126.868 257.816 127.316 257.528C127.764 257.24 128.108 256.816 128.348 256.256C128.604 255.68 128.732 254.968 128.732 254.12C128.732 252.84 128.46 251.888 127.916 251.264C127.372 250.624 126.652 250.304 125.756 250.304C125.164 250.304 124.644 250.448 124.196 250.736C123.748 251.008 123.396 251.432 123.14 252.008C122.9 252.568 122.78 253.272 122.78 254.12C122.78 255.384 123.052 256.344 123.596 257C124.14 257.64 124.86 257.96 125.756 257.96ZM135.72 260.192C135.24 260.192 134.872 260.064 134.616 259.808C134.36 259.536 134.232 259.152 134.232 258.656V244.4C134.232 243.904 134.36 243.528 134.616 243.272C134.872 243.016 135.24 242.888 135.72 242.888C136.2 242.888 136.568 243.016 136.824 243.272C137.096 243.528 137.232 243.904 137.232 244.4V253.256H137.28L141.24 249.08C141.56 248.76 141.84 248.512 142.08 248.336C142.32 248.16 142.648 248.072 143.064 248.072C143.48 248.072 143.792 248.184 144 248.408C144.224 248.616 144.336 248.872 144.336 249.176C144.336 249.48 144.192 249.784 143.904 250.088L139.728 254.504V253.256L144.312 258.2C144.6 258.504 144.728 258.816 144.696 259.136C144.68 259.44 144.552 259.696 144.312 259.904C144.072 260.096 143.768 260.192 143.4 260.192C142.952 260.192 142.592 260.104 142.32 259.928C142.064 259.752 141.776 259.488 141.456 259.136L137.28 254.768H137.232V258.656C137.232 259.68 136.728 260.192 135.72 260.192ZM148.587 260.168C148.107 260.168 147.739 260.024 147.483 259.736C147.227 259.448 147.099 259.048 147.099 258.536V249.728C147.099 249.2 147.227 248.8 147.483 248.528C147.739 248.24 148.107 248.096 148.587 248.096C149.067 248.096 149.435 248.24 149.691 248.528C149.963 248.8 150.099 249.2 150.099 249.728V258.536C150.099 259.048 149.971 259.448 149.715 259.736C149.459 260.024 149.083 260.168 148.587 260.168ZM148.587 245.864C148.027 245.864 147.587 245.728 147.267 245.456C146.963 245.168 146.811 244.776 146.811 244.28C146.811 243.768 146.963 243.376 147.267 243.104C147.587 242.832 148.027 242.696 148.587 242.696C149.163 242.696 149.603 242.832 149.907 243.104C150.211 243.376 150.363 243.768 150.363 244.28C150.363 244.776 150.211 245.168 149.907 245.456C149.603 245.728 149.163 245.864 148.587 245.864ZM154.704 260.192C154.224 260.192 153.856 260.064 153.6 259.808C153.344 259.536 153.216 259.152 153.216 258.656V249.584C153.216 249.088 153.344 248.712 153.6 248.456C153.856 248.2 154.216 248.072 154.68 248.072C155.144 248.072 155.504 248.2 155.76 248.456C156.016 248.712 156.144 249.088 156.144 249.584V251.216L155.88 250.616C156.232 249.768 156.776 249.128 157.512 248.696C158.264 248.248 159.112 248.024 160.056 248.024C161 248.024 161.776 248.2 162.384 248.552C162.992 248.904 163.448 249.44 163.752 250.16C164.056 250.864 164.208 251.76 164.208 252.848V258.656C164.208 259.152 164.08 259.536 163.824 259.808C163.568 260.064 163.2 260.192 162.72 260.192C162.24 260.192 161.864 260.064 161.592 259.808C161.336 259.536 161.208 259.152 161.208 258.656V252.992C161.208 252.08 161.032 251.416 160.68 251C160.344 250.584 159.816 250.376 159.096 250.376C158.216 250.376 157.512 250.656 156.984 251.216C156.472 251.76 156.216 252.488 156.216 253.4V258.656C156.216 259.68 155.712 260.192 154.704 260.192ZM172.727 264.56C171.863 264.56 171.023 264.48 170.207 264.32C169.407 264.16 168.679 263.912 168.023 263.576C167.719 263.416 167.511 263.224 167.399 263C167.303 262.776 167.271 262.544 167.303 262.304C167.351 262.08 167.447 261.88 167.591 261.704C167.751 261.528 167.943 261.408 168.167 261.344C168.391 261.28 168.623 261.312 168.863 261.44C169.567 261.792 170.231 262.016 170.855 262.112C171.495 262.224 172.039 262.28 172.487 262.28C173.559 262.28 174.359 262.016 174.887 261.488C175.431 260.976 175.703 260.208 175.703 259.184V257.024H175.919C175.679 257.84 175.175 258.496 174.407 258.992C173.655 259.472 172.799 259.712 171.839 259.712C170.783 259.712 169.863 259.472 169.079 258.992C168.295 258.496 167.687 257.808 167.255 256.928C166.823 256.048 166.607 255.024 166.607 253.856C166.607 252.976 166.727 252.184 166.967 251.48C167.223 250.76 167.575 250.144 168.023 249.632C168.487 249.12 169.039 248.728 169.679 248.456C170.335 248.168 171.055 248.024 171.839 248.024C172.831 248.024 173.695 248.272 174.431 248.768C175.183 249.248 175.671 249.888 175.895 250.688L175.655 251.288V249.584C175.655 249.088 175.783 248.712 176.039 248.456C176.311 248.2 176.679 248.072 177.143 248.072C177.623 248.072 177.991 248.2 178.247 248.456C178.503 248.712 178.631 249.088 178.631 249.584V258.824C178.631 260.728 178.127 262.16 177.119 263.12C176.111 264.08 174.647 264.56 172.727 264.56ZM172.655 257.432C173.279 257.432 173.815 257.288 174.263 257C174.711 256.712 175.055 256.304 175.295 255.776C175.551 255.232 175.679 254.592 175.679 253.856C175.679 252.752 175.407 251.888 174.863 251.264C174.319 250.624 173.583 250.304 172.655 250.304C172.031 250.304 171.495 250.448 171.047 250.736C170.599 251.024 170.247 251.432 169.991 251.96C169.751 252.488 169.631 253.12 169.631 253.856C169.631 254.96 169.903 255.832 170.447 256.472C170.991 257.112 171.727 257.432 172.655 257.432ZM196.415 260.24C194.655 260.24 193.143 259.888 191.879 259.184C190.631 258.464 189.671 257.456 188.999 256.16C188.327 254.848 187.991 253.304 187.991 251.528C187.991 250.2 188.183 249.008 188.567 247.952C188.951 246.88 189.503 245.968 190.223 245.216C190.943 244.448 191.823 243.864 192.863 243.464C193.919 243.048 195.103 242.84 196.415 242.84C197.295 242.84 198.159 242.952 199.007 243.176C199.855 243.4 200.599 243.72 201.239 244.136C201.575 244.344 201.799 244.6 201.911 244.904C202.023 245.192 202.047 245.48 201.983 245.768C201.919 246.04 201.783 246.272 201.575 246.464C201.383 246.656 201.135 246.768 200.831 246.8C200.543 246.816 200.223 246.712 199.871 246.488C199.375 246.168 198.839 245.936 198.263 245.792C197.687 245.648 197.103 245.576 196.511 245.576C195.375 245.576 194.415 245.808 193.631 246.272C192.847 246.736 192.255 247.408 191.855 248.288C191.455 249.168 191.255 250.248 191.255 251.528C191.255 252.792 191.455 253.872 191.855 254.768C192.255 255.664 192.847 256.344 193.631 256.808C194.415 257.272 195.375 257.504 196.511 257.504C197.119 257.504 197.719 257.432 198.311 257.288C198.903 257.128 199.463 256.888 199.991 256.568C200.343 256.36 200.655 256.272 200.927 256.304C201.215 256.32 201.455 256.416 201.647 256.592C201.839 256.768 201.967 256.992 202.031 257.264C202.095 257.52 202.079 257.792 201.983 258.08C201.887 258.352 201.695 258.592 201.407 258.8C200.767 259.264 199.999 259.624 199.103 259.88C198.223 260.12 197.327 260.24 196.415 260.24ZM208.01 260.24C207.162 260.24 206.402 260.08 205.73 259.76C205.074 259.424 204.554 258.976 204.17 258.416C203.802 257.856 203.618 257.224 203.618 256.52C203.618 255.656 203.842 254.976 204.29 254.48C204.738 253.968 205.466 253.6 206.474 253.376C207.482 253.152 208.834 253.04 210.53 253.04H211.73V254.768H210.554C209.562 254.768 208.77 254.816 208.178 254.912C207.586 255.008 207.162 255.176 206.906 255.416C206.666 255.64 206.546 255.96 206.546 256.376C206.546 256.904 206.73 257.336 207.098 257.672C207.466 258.008 207.978 258.176 208.634 258.176C209.162 258.176 209.626 258.056 210.026 257.816C210.442 257.56 210.77 257.216 211.01 256.784C211.25 256.352 211.37 255.856 211.37 255.296V252.536C211.37 251.736 211.194 251.16 210.842 250.808C210.49 250.456 209.898 250.28 209.066 250.28C208.602 250.28 208.098 250.336 207.554 250.448C207.026 250.56 206.466 250.752 205.874 251.024C205.57 251.168 205.298 251.208 205.058 251.144C204.834 251.08 204.658 250.952 204.53 250.76C204.402 250.552 204.338 250.328 204.338 250.088C204.338 249.848 204.402 249.616 204.53 249.392C204.658 249.152 204.874 248.976 205.178 248.864C205.914 248.56 206.618 248.344 207.29 248.216C207.978 248.088 208.602 248.024 209.162 248.024C210.314 248.024 211.258 248.2 211.994 248.552C212.746 248.904 213.306 249.44 213.674 250.16C214.042 250.864 214.226 251.776 214.226 252.896V258.656C214.226 259.152 214.106 259.536 213.866 259.808C213.626 260.064 213.282 260.192 212.834 260.192C212.386 260.192 212.034 260.064 211.778 259.808C211.538 259.536 211.418 259.152 211.418 258.656V257.504H211.61C211.498 258.064 211.274 258.552 210.938 258.968C210.618 259.368 210.21 259.68 209.714 259.904C209.218 260.128 208.65 260.24 208.01 260.24ZM218.759 260.192C218.279 260.192 217.911 260.064 217.655 259.808C217.399 259.536 217.271 259.152 217.271 258.656V249.584C217.271 249.088 217.399 248.712 217.655 248.456C217.911 248.2 218.271 248.072 218.735 248.072C219.199 248.072 219.559 248.2 219.815 248.456C220.071 248.712 220.199 249.088 220.199 249.584V251.216L219.935 250.616C220.287 249.768 220.831 249.128 221.567 248.696C222.319 248.248 223.167 248.024 224.111 248.024C225.055 248.024 225.831 248.2 226.439 248.552C227.047 248.904 227.503 249.44 227.807 250.16C228.111 250.864 228.263 251.76 228.263 252.848V258.656C228.263 259.152 228.135 259.536 227.879 259.808C227.623 260.064 227.255 260.192 226.775 260.192C226.295 260.192 225.919 260.064 225.647 259.808C225.391 259.536 225.263 259.152 225.263 258.656V252.992C225.263 252.08 225.087 251.416 224.735 251C224.399 250.584 223.871 250.376 223.151 250.376C222.271 250.376 221.567 250.656 221.039 251.216C220.527 251.76 220.271 252.488 220.271 253.4V258.656C220.271 259.68 219.767 260.192 218.759 260.192ZM236.734 260.24C235.502 260.24 234.43 259.992 233.518 259.496C232.606 258.984 231.902 258.264 231.406 257.336C230.91 256.408 230.662 255.32 230.662 254.072C230.662 253.128 230.798 252.288 231.07 251.552C231.358 250.8 231.766 250.168 232.294 249.656C232.822 249.128 233.462 248.728 234.214 248.456C234.966 248.168 235.806 248.024 236.734 248.024C237.262 248.024 237.83 248.096 238.438 248.24C239.062 248.384 239.646 248.624 240.19 248.96C240.446 249.12 240.614 249.312 240.694 249.536C240.774 249.76 240.79 249.992 240.742 250.232C240.694 250.456 240.59 250.656 240.43 250.832C240.286 250.992 240.102 251.096 239.878 251.144C239.654 251.176 239.406 251.12 239.134 250.976C238.782 250.768 238.422 250.616 238.054 250.52C237.686 250.408 237.334 250.352 236.998 250.352C236.47 250.352 236.006 250.44 235.606 250.616C235.206 250.776 234.862 251.016 234.574 251.336C234.302 251.64 234.094 252.024 233.95 252.488C233.806 252.952 233.734 253.488 233.734 254.096C233.734 255.28 234.014 256.216 234.574 256.904C235.15 257.576 235.958 257.912 236.998 257.912C237.334 257.912 237.678 257.864 238.03 257.768C238.398 257.672 238.766 257.52 239.134 257.312C239.406 257.168 239.646 257.12 239.854 257.168C240.078 257.216 240.262 257.328 240.406 257.504C240.55 257.664 240.638 257.864 240.67 258.104C240.702 258.328 240.67 258.552 240.574 258.776C240.494 259 240.334 259.184 240.094 259.328C239.566 259.648 239.006 259.88 238.414 260.024C237.822 260.168 237.262 260.24 236.734 260.24ZM248.18 260.24C246.852 260.24 245.708 259.992 244.748 259.496C243.788 259 243.044 258.296 242.516 257.384C242.004 256.472 241.748 255.392 241.748 254.144C241.748 252.928 241.996 251.864 242.492 250.952C243.004 250.04 243.7 249.328 244.58 248.816C245.476 248.288 246.492 248.024 247.628 248.024C248.46 248.024 249.204 248.16 249.86 248.432C250.532 248.704 251.1 249.096 251.564 249.608C252.044 250.12 252.404 250.744 252.644 251.48C252.9 252.2 253.028 253.016 253.028 253.928C253.028 254.216 252.924 254.44 252.716 254.6C252.524 254.744 252.244 254.816 251.876 254.816H244.172V253.088H250.916L250.532 253.448C250.532 252.712 250.42 252.096 250.196 251.6C249.988 251.104 249.676 250.728 249.26 250.472C248.86 250.2 248.356 250.064 247.748 250.064C247.076 250.064 246.5 250.224 246.02 250.544C245.556 250.848 245.196 251.288 244.94 251.864C244.7 252.424 244.58 253.096 244.58 253.88V254.048C244.58 255.36 244.884 256.344 245.492 257C246.116 257.64 247.028 257.96 248.228 257.96C248.644 257.96 249.108 257.912 249.62 257.816C250.148 257.704 250.644 257.52 251.108 257.264C251.444 257.072 251.74 256.992 251.996 257.024C252.252 257.04 252.452 257.128 252.596 257.288C252.756 257.448 252.852 257.648 252.884 257.888C252.916 258.112 252.868 258.344 252.74 258.584C252.628 258.824 252.428 259.032 252.14 259.208C251.58 259.56 250.932 259.824 250.196 260C249.476 260.16 248.804 260.24 248.18 260.24ZM259.412 260.24C258.084 260.24 257.084 259.864 256.412 259.112C255.74 258.344 255.404 257.224 255.404 255.752V244.4C255.404 243.904 255.532 243.528 255.788 243.272C256.044 243.016 256.412 242.888 256.892 242.888C257.372 242.888 257.74 243.016 257.996 243.272C258.268 243.528 258.404 243.904 258.404 244.4V255.608C258.404 256.344 258.556 256.888 258.86 257.24C259.18 257.592 259.628 257.768 260.204 257.768C260.332 257.768 260.452 257.768 260.564 257.768C260.676 257.752 260.788 257.736 260.9 257.72C261.124 257.688 261.276 257.752 261.356 257.912C261.436 258.056 261.476 258.36 261.476 258.824C261.476 259.224 261.396 259.536 261.236 259.76C261.076 259.984 260.812 260.12 260.444 260.168C260.284 260.184 260.116 260.2 259.94 260.216C259.764 260.232 259.588 260.24 259.412 260.24Z" fill="url(#paint2_linear_255_2321)"/>
<defs>
<linearGradient id="paint0_linear_255_2321" x1="179" y1="52" x2="179.201" y2="202.54" gradientUnits="userSpaceOnUse">
<stop stop-color="#00BFFF"/>
<stop offset="1" stop-color="#8BD5EE" stop-opacity="0.65"/>
</linearGradient>
<linearGradient id="paint1_linear_255_2321" x1="83" y1="106" x2="83.0029" y2="108.151" gradientUnits="userSpaceOnUse">
<stop stop-color="#008000" stop-opacity="0.77"/>
<stop offset="1" stop-color="#FFFF00" stop-opacity="0.8"/>
</linearGradient>
<linearGradient id="paint2_linear_255_2321" x1="175" y1="236" x2="175.005" y2="271.484" gradientUnits="userSpaceOnUse">
<stop stop-color="#90D3EB"/>
<stop offset="1" stop-color="#69BFDE"/>
</linearGradient>
</defs>
</svg>
