<svg width="48" height="46" viewBox="0 0 48 46" fill="none" xmlns="http://www.w3.org/2000/svg">
<path d="M24 44.0869C36.1489 44.0869 46 34.6646 46 23.0435C46 11.4224 36.1489 2 24 2C11.8511 2 2 11.4224 2 23.0435C2 28.4102 4.09978 33.305 7.55622 37.0214C8.61222 38.1616 9.36511 39.6742 8.98867 41.2072C8.57646 42.8835 7.80501 44.4402 6.73244 45.7602C7.5908 45.9211 8.46125 46.0013 9.33333 46C12.4671 46 15.3711 44.9746 17.7544 43.2273C19.7344 43.7885 21.8318 44.0869 24 44.0869Z" fill="white"/>
<g clip-path="url(#clip0_53_268)">
<ellipse cx="24" cy="22.65" rx="22" ry="20.65" fill="#96979C"/>
<path d="M24.3936 28.9602C28.3378 28.9602 31.5352 25.9589 31.5352 22.2568C31.5352 18.5546 28.3378 15.5533 24.3936 15.5533C20.4494 15.5533 17.252 18.5546 17.252 22.2568C17.252 25.9589 20.4494 28.9602 24.3936 28.9602Z" fill="#FFD251"/>
<path d="M20.294 29.9514L19.9713 26.8901L26.4143 25.7593L30.2188 34.454L23.6022 41.5961L18.8879 32.9014L20.294 29.9514Z" fill="#FFD251"/>
<path d="M19.8676 28.4225L21.2762 28.7212C21.2762 28.7212 20.1689 25.4254 20.5448 25.1108C20.9206 24.7961 21.8416 25.2919 21.8416 25.2919L22.8095 26.3104L23.9884 25.1838C23.9884 25.1838 25.2682 23.69 25.7694 23.2705C26.2705 22.8509 25.4656 21.2937 25.4656 21.2937C25.4656 21.2937 32.9002 19.4119 30.1338 16.0272C30.1338 16.0272 28.5118 13.3734 27.9836 14.2379C27.4554 15.1024 26.8256 13.7294 26.8256 13.7294L24.9024 14.0726C24.9024 14.0726 21.1066 11.9719 17.504 16.466C13.9013 20.9601 19.8676 28.4225 19.8676 28.4225Z" fill="#292929"/>
<path d="M37.8253 38.7159C33.9224 41.686 29.0939 43.3 24 43.3C19.3486 43.3 14.918 41.9539 11.2119 39.4588C11.2185 39.3936 11.2251 39.3292 11.2309 39.2647C11.3294 38.2555 11.417 37.2742 11.4749 36.4607C11.6991 33.3018 19.5504 31.1965 19.5504 31.1965C19.5504 31.1965 19.586 31.2298 19.6571 31.2881C20.0905 31.6452 21.8497 32.9401 24.9346 33.3018C27.6854 33.6248 28.5911 32.0931 28.8648 31.3595C28.9476 31.1359 28.9724 30.9861 28.9724 30.9861L37.0479 34.5657C37.5747 35.2721 37.7806 36.7937 37.8212 38.5039C37.8228 38.5746 37.8245 38.6444 37.8253 38.7159Z" fill="white"/>
</g>
<path d="M24 44.05C36.519 44.05 46.75 34.5129 46.75 22.65C46.75 10.7871 36.519 1.25 24 1.25C11.481 1.25 1.25 10.7871 1.25 22.65C1.25 34.5129 11.481 44.05 24 44.05Z" stroke="white" stroke-width="1.5"/>
<defs>
<clipPath id="clip0_53_268">
<rect width="44" height="41.3" fill="white" transform="translate(2 2)"/>
</clipPath>
</defs>
</svg>
