<svg width="17" height="15" viewBox="0 0 17 15" fill="none" xmlns="http://www.w3.org/2000/svg">
<path d="M15.7857 5H16.2857V4.5V3.75C16.2857 3.05084 16.0618 2.36436 15.6409 1.84441C15.2176 1.32161 14.6182 1 13.9643 1H3.03571C2.38182 1 1.78237 1.32161 1.35915 1.84441C0.938236 2.36436 0.714286 3.05084 0.714286 3.75V4.5V5H1.21429H15.7857ZM1.21429 5.5H0.714286V6V11.25C0.714286 11.9492 0.938236 12.6356 1.35915 13.1556C1.78237 13.6784 2.38182 14 3.03571 14H13.9643C14.6182 14 15.2176 13.6784 15.6409 13.1556C16.0618 12.6356 16.2857 11.9492 16.2857 11.25V6V5.5H15.7857H1.21429ZM11.495 11.0343C11.5113 11.0142 11.5247 11.0055 11.5311 11.0022C11.5339 11.0008 11.5356 11.0002 11.5364 11H13.9636C13.9644 11.0002 13.9661 11.0008 13.9689 11.0022C13.9753 11.0055 13.9887 11.0142 14.005 11.0343C14.0395 11.0769 14.0714 11.1535 14.0714 11.25C14.0714 11.3465 14.0395 11.4231 14.005 11.4657C13.9887 11.4858 13.9753 11.4945 13.9689 11.4978C13.9661 11.4992 13.9644 11.4998 13.9636 11.5H11.5364C11.5356 11.4998 11.5339 11.4992 11.5311 11.4978C11.5247 11.4945 11.5113 11.4858 11.495 11.4657C11.4605 11.4231 11.4286 11.3465 11.4286 11.25C11.4286 11.1535 11.4605 11.0769 11.495 11.0343ZM0.5 3.75C0.5 2.85786 0.787783 2.01822 1.27776 1.41295C1.76544 0.81053 2.40141 0.5 3.03571 0.5H13.9643C14.5986 0.5 15.2346 0.81053 15.7222 1.41295C16.2122 2.01822 16.5 2.85786 16.5 3.75V11.25C16.5 12.1421 16.2122 12.9818 15.7222 13.5871C15.2346 14.1895 14.5986 14.5 13.9643 14.5H3.03571C2.40141 14.5 1.76544 14.1895 1.27776 13.5871C0.787783 12.9818 0.5 12.1421 0.5 11.25V3.75Z" fill="white" stroke="black"/>
</svg>
