<svg width="175" height="179" viewBox="0 0 175 179" fill="none" xmlns="http://www.w3.org/2000/svg">
<path fill-rule="evenodd" clip-rule="evenodd" d="M60.9124 7.00785C61.3534 5.02039 62.4576 3.24295 64.0429 1.96891C65.6281 0.694859 67.5996 0.000349388 69.632 0H105.368C107.4 0.000349388 109.372 0.694859 110.957 1.96891C112.542 3.24295 113.647 5.02039 114.088 7.00785L118.019 24.7378C121.592 26.4383 124.987 28.4073 128.203 30.6448L145.518 25.1853C147.456 24.5746 149.545 24.6444 151.439 25.3831C153.333 26.1218 154.919 27.4853 155.935 29.2486L173.803 60.2514C174.819 62.0149 175.205 64.073 174.896 66.0859C174.588 68.0987 173.603 69.9459 172.105 71.3225L158.731 83.6109C159.054 87.5303 159.054 91.4697 158.731 95.3891L172.105 107.677C173.603 109.054 174.588 110.901 174.896 112.914C175.205 114.927 174.819 116.985 173.803 118.749L155.935 149.751C154.919 151.515 153.333 152.878 151.439 153.617C149.545 154.356 147.456 154.425 145.518 153.815L128.212 148.355C124.996 150.593 121.601 152.562 118.028 154.262L114.097 171.983C113.657 173.974 112.552 175.754 110.965 177.03C109.378 178.306 107.403 179.001 105.368 179H69.632C67.5996 179 65.6281 178.305 64.0429 177.031C62.4576 175.757 61.3534 173.98 60.9124 171.992L56.9814 154.262C53.4078 152.562 50.0129 150.593 46.7966 148.355L29.4825 153.815C27.5437 154.425 25.455 154.356 23.5612 153.617C21.6673 152.878 20.0815 151.515 19.0654 149.751L1.19736 118.749C0.180787 116.985 -0.205043 114.927 0.103573 112.914C0.412189 110.901 1.3968 109.054 2.89482 107.677L16.2691 95.3891C15.9462 91.4697 15.9462 87.5303 16.2691 83.6109L2.89482 71.3315C1.3968 69.9549 0.412189 68.1077 0.103573 66.0948C-0.205043 64.082 0.180787 62.0239 1.19736 60.2603L19.0654 29.2575C20.0815 27.4943 21.6673 26.1308 23.5612 25.392C25.455 24.6533 27.5437 24.5836 29.4825 25.1943L46.7877 30.6538C50.0039 28.4163 53.3988 26.4472 56.9725 24.7467L60.9034 7.02575L60.9124 7.00785ZM120.618 77.9276C122.246 76.2397 123.146 73.9789 123.126 71.6322C123.106 69.2855 122.166 67.0408 120.51 65.3814C118.853 63.722 116.612 62.7807 114.27 62.7603C111.927 62.7399 109.671 63.642 107.986 65.2724L78.566 94.7447L67.0143 83.1723C65.3293 81.542 63.0726 80.6399 60.7301 80.6603C58.3876 80.6807 56.1469 81.622 54.4904 83.2814C52.834 84.9408 51.8944 87.1855 51.874 89.5322C51.8537 91.8789 52.7542 94.1397 54.3816 95.8276L72.2496 113.728C73.925 115.406 76.197 116.348 78.566 116.348C80.935 116.348 83.207 115.406 84.8823 113.728L120.618 77.9276Z" fill="url(#paint0_linear_8_93)"/>
<defs>
<linearGradient id="paint0_linear_8_93" x1="87.5" y1="0" x2="87.5" y2="179" gradientUnits="userSpaceOnUse">
<stop stop-color="#54D4FF"/>
<stop offset="1" stop-color="#00BFFF"/>
</linearGradient>
</defs>
</svg>
