<svg width="46" height="46" viewBox="0 0 46 46" fill="none" xmlns="http://www.w3.org/2000/svg">
<circle cx="23" cy="23" r="22.5" fill="#FDFAFA" stroke="#2A76D8"/>
<path d="M32.8055 21.0415H32V21H23V25H28.6515C27.827 27.3285 25.6115 29 23 29C19.6865 29 17 26.3135 17 23C17 19.6865 19.6865 17 23 17C24.5295 17 25.921 17.577 26.9805 18.5195L29.809 15.691C28.023 14.0265 25.634 13 23 13C17.4775 13 13 17.4775 13 23C13 28.5225 17.4775 33 23 33C28.5225 33 33 28.5225 33 23C33 22.3295 32.931 21.675 32.8055 21.0415Z" fill="#FFC107"/>
<path d="M14.1531 18.3455L17.4386 20.755C18.3276 18.554 20.4806 17 23.0001 17C24.5296 17 25.9211 17.577 26.9806 18.5195L29.8091 15.691C28.0231 14.0265 25.6341 13 23.0001 13C19.1591 13 15.8281 15.1685 14.1531 18.3455Z" fill="#FF3D00"/>
<path d="M23 33C25.583 33 27.93 32.0115 29.7045 30.404L26.6095 27.785C25.572 28.5745 24.3038 29.0014 23 29C20.399 29 18.1905 27.3415 17.3585 25.027L14.0975 27.5395C15.7525 30.778 19.1135 33 23 33Z" fill="#4CAF50"/>
<path d="M32.8055 21.0415H32V21H23V25H28.6515C28.2571 26.1082 27.5467 27.0766 26.608 27.7855L26.6095 27.7845L29.7045 30.4035C29.4855 30.6025 33 28 33 23C33 22.3295 32.931 21.675 32.8055 21.0415Z" fill="#1976D2"/>
</svg>
