<svg width="24" height="17" viewBox="0 0 24 17" fill="none" xmlns="http://www.w3.org/2000/svg">
<path d="M24 14.0556C24 14.7333 23.7191 15.3833 23.219 15.8626C22.7189 16.3419 22.0406 16.6111 21.3333 16.6111H16V0H21.3333C22.0406 0 22.7189 0.269245 23.219 0.748505C23.7191 1.22776 24 1.87778 24 2.55556V14.0556Z" fill="#CE2B37"/>
<path d="M2.66667 0C1.95942 0 1.28115 0.269245 0.781049 0.748505C0.280952 1.22776 0 1.87778 0 2.55556L0 14.0556C0 14.7333 0.280952 15.3833 0.781049 15.8626C1.28115 16.3419 1.95942 16.6111 2.66667 16.6111H8.00001V0H2.66667Z" fill="#009246"/>
<path d="M8 0H16V16.6111H8V0Z" fill="#EEEEEE"/>
</svg>
