<svg width="28" height="28" viewBox="0 0 28 28" fill="none" xmlns="http://www.w3.org/2000/svg">
<ellipse cx="13.7627" cy="14" rx="13.7627" ry="14" fill="white"/>
<path d="M27.0254 14C27.0254 21.4639 21.0795 27.5 13.7627 27.5C6.44594 27.5 0.5 21.4639 0.5 14C0.5 6.53606 6.44594 0.5 13.7627 0.5C21.0795 0.5 27.0254 6.53606 27.0254 14Z" stroke="#00BFFF" stroke-opacity="0.23"/>
<path d="M9.33883 8C8.52487 8 7.86426 8.82133 7.86426 9.83333V17.1667C7.86426 18.1787 8.52487 19 9.33883 19H19.1693C19.9833 19 20.6439 18.1787 20.6439 17.1667V9.83333C20.6439 8.82133 19.9833 8 19.1693 8H9.33883ZM9.33883 9.22222H19.1693C19.4402 9.22222 19.6609 9.49661 19.6609 9.83333V10.1389L14.2541 13.7677L8.84731 10.1389V9.83333C8.84731 9.49661 9.068 9.22222 9.33883 9.22222ZM8.84731 10.3106L12.0575 13.4236L8.90875 17.4343L12.749 14.0347L14.2541 15.238L15.7596 14.0347L19.5994 17.4343L16.4507 13.4236L19.6609 10.3106V17.1667C19.6581 17.2608 19.6371 17.3526 19.5994 17.4343C19.5183 17.6329 19.3605 17.7778 19.1693 17.7778H9.33883C9.14763 17.7778 8.98985 17.6336 8.90875 17.4343C8.87119 17.3528 8.85011 17.2606 8.84731 17.1667V10.3106Z" fill="#00BFFF"/>
</svg>
