<svg width="28" height="28" viewBox="0 0 28 28" fill="none" xmlns="http://www.w3.org/2000/svg">
<path d="M27.5254 14C27.5254 21.732 21.3636 28 13.7627 28C6.16178 28 0 21.732 0 14C0 6.26801 6.16178 0 13.7627 0C21.3636 0 27.5254 6.26801 27.5254 14Z" fill="white"/>
<path d="M9.33898 8C8.52502 8 7.86441 8.82133 7.86441 9.83333V17.1667C7.86441 18.1787 8.52502 19 9.33898 19H19.1695C19.9835 19 20.6441 18.1787 20.6441 17.1667V9.83333C20.6441 8.82133 19.9835 8 19.1695 8H9.33898ZM9.33898 9.22222H19.1695C19.4403 9.22222 19.661 9.49661 19.661 9.83333V10.1389L14.2542 13.7677L8.84746 10.1389V9.83333C8.84746 9.49661 9.06815 9.22222 9.33898 9.22222ZM8.84746 10.3106L12.0576 13.4236L8.9089 17.4343L12.7492 14.0347L14.2542 15.238L15.7598 14.0347L19.5996 17.4343L16.4509 13.4236L19.661 10.3106V17.1667C19.6583 17.2608 19.6372 17.3526 19.5996 17.4343C19.5185 17.6329 19.3607 17.7778 19.1695 17.7778H9.33898C9.14778 17.7778 8.99 17.6336 8.9089 17.4343C8.87134 17.3528 8.85025 17.2606 8.84746 17.1667V10.3106Z" fill="#00BFFF"/>
</svg>
