<svg width="319" height="212" viewBox="0 0 319 212" fill="none" xmlns="http://www.w3.org/2000/svg">
<path d="M9.85406 195.849L6.17406 202.937V206.969H4.35006V202.937L0.654063 195.849H2.68606L5.26206 201.305L7.83806 195.849H9.85406ZM15.1256 207.113C14.2936 207.113 13.5416 206.926 12.8696 206.553C12.1976 206.169 11.6696 205.635 11.2856 204.953C10.9016 204.259 10.7096 203.459 10.7096 202.553C10.7096 201.657 10.9069 200.862 11.3016 200.169C11.6962 199.475 12.2349 198.942 12.9176 198.569C13.6002 198.195 14.3629 198.009 15.2056 198.009C16.0482 198.009 16.8109 198.195 17.4936 198.569C18.1762 198.942 18.7149 199.475 19.1096 200.169C19.5042 200.862 19.7016 201.657 19.7016 202.553C19.7016 203.449 19.4989 204.243 19.0936 204.937C18.6882 205.63 18.1336 206.169 17.4296 206.553C16.7362 206.926 15.9682 207.113 15.1256 207.113ZM15.1256 205.529C15.5949 205.529 16.0322 205.417 16.4376 205.193C16.8536 204.969 17.1896 204.633 17.4456 204.185C17.7016 203.737 17.8296 203.193 17.8296 202.553C17.8296 201.913 17.7069 201.374 17.4616 200.937C17.2162 200.489 16.8909 200.153 16.4856 199.929C16.0802 199.705 15.6429 199.593 15.1736 199.593C14.7042 199.593 14.2669 199.705 13.8616 199.929C13.4669 200.153 13.1522 200.489 12.9176 200.937C12.6829 201.374 12.5656 201.913 12.5656 202.553C12.5656 203.502 12.8056 204.238 13.2856 204.761C13.7762 205.273 14.3896 205.529 15.1256 205.529ZM29.4887 198.153V206.969H27.6647V205.929C27.3767 206.291 26.998 206.579 26.5287 206.793C26.07 206.995 25.5794 207.097 25.0567 207.097C24.3634 207.097 23.7394 206.953 23.1847 206.665C22.6407 206.377 22.2087 205.95 21.8887 205.385C21.5794 204.819 21.4247 204.137 21.4247 203.337V198.153H23.2327V203.065C23.2327 203.854 23.43 204.462 23.8247 204.889C24.2194 205.305 24.758 205.513 25.4407 205.513C26.1234 205.513 26.662 205.305 27.0567 204.889C27.462 204.462 27.6647 203.854 27.6647 203.065V198.153H29.4887ZM39.5998 202.521C39.5998 201.635 39.7811 200.851 40.1438 200.169C40.5171 199.486 41.0185 198.958 41.6478 198.585C42.2878 198.201 42.9971 198.009 43.7758 198.009C44.3518 198.009 44.9171 198.137 45.4718 198.393C46.0371 198.638 46.4851 198.969 46.8158 199.385V195.129H48.6558V206.969H46.8158V205.641C46.5171 206.067 46.1011 206.419 45.5678 206.697C45.0451 206.974 44.4425 207.113 43.7598 207.113C42.9918 207.113 42.2878 206.921 41.6478 206.537C41.0185 206.142 40.5171 205.598 40.1438 204.905C39.7811 204.201 39.5998 203.406 39.5998 202.521ZM46.8158 202.553C46.8158 201.945 46.6878 201.417 46.4318 200.969C46.1865 200.521 45.8611 200.179 45.4558 199.945C45.0505 199.71 44.6131 199.593 44.1438 199.593C43.6745 199.593 43.2371 199.71 42.8318 199.945C42.4265 200.169 42.0958 200.505 41.8398 200.953C41.5945 201.39 41.4718 201.913 41.4718 202.521C41.4718 203.129 41.5945 203.662 41.8398 204.121C42.0958 204.579 42.4265 204.931 42.8318 205.177C43.2478 205.411 43.6851 205.529 44.1438 205.529C44.6131 205.529 45.0505 205.411 45.4558 205.177C45.8611 204.942 46.1865 204.601 46.4318 204.153C46.6878 203.694 46.8158 203.161 46.8158 202.553ZM54.8756 207.113C54.0436 207.113 53.2916 206.926 52.6196 206.553C51.9476 206.169 51.4196 205.635 51.0356 204.953C50.6516 204.259 50.4596 203.459 50.4596 202.553C50.4596 201.657 50.6569 200.862 51.0516 200.169C51.4462 199.475 51.9849 198.942 52.6676 198.569C53.3502 198.195 54.1129 198.009 54.9556 198.009C55.7982 198.009 56.5609 198.195 57.2436 198.569C57.9262 198.942 58.4649 199.475 58.8596 200.169C59.2542 200.862 59.4516 201.657 59.4516 202.553C59.4516 203.449 59.2489 204.243 58.8436 204.937C58.4382 205.63 57.8836 206.169 57.1796 206.553C56.4862 206.926 55.7182 207.113 54.8756 207.113ZM54.8756 205.529C55.3449 205.529 55.7822 205.417 56.1876 205.193C56.6036 204.969 56.9396 204.633 57.1956 204.185C57.4516 203.737 57.5796 203.193 57.5796 202.553C57.5796 201.913 57.4569 201.374 57.2116 200.937C56.9662 200.489 56.6409 200.153 56.2356 199.929C55.8302 199.705 55.3929 199.593 54.9236 199.593C54.4542 199.593 54.0169 199.705 53.6116 199.929C53.2169 200.153 52.9022 200.489 52.6676 200.937C52.4329 201.374 52.3156 201.913 52.3156 202.553C52.3156 203.502 52.5556 204.238 53.0356 204.761C53.5262 205.273 54.1396 205.529 54.8756 205.529ZM65.7027 198.009C66.396 198.009 67.0147 198.153 67.5587 198.441C68.1134 198.729 68.5454 199.155 68.8547 199.721C69.164 200.286 69.3187 200.969 69.3187 201.769V206.969H67.5107V202.041C67.5107 201.251 67.3134 200.649 66.9187 200.233C66.524 199.806 65.9854 199.593 65.3027 199.593C64.62 199.593 64.076 199.806 63.6707 200.233C63.276 200.649 63.0787 201.251 63.0787 202.041V206.969H61.2547V198.153H63.0787V199.161C63.3774 198.798 63.756 198.515 64.2147 198.313C64.684 198.11 65.18 198.009 65.7027 198.009ZM71.9333 195.849H73.9173L72.2373 199.657H70.9573L71.9333 195.849ZM77.6483 199.641V204.521C77.6483 204.851 77.723 205.091 77.8723 205.241C78.0323 205.379 78.299 205.449 78.6723 205.449H79.7923V206.969H78.3523C77.531 206.969 76.9016 206.777 76.4643 206.393C76.027 206.009 75.8083 205.385 75.8083 204.521V199.641H74.7683V198.153H75.8083V195.961H77.6483V198.153H79.7923V199.641H77.6483ZM90.1897 198.009C90.8617 198.009 91.459 198.153 91.9817 198.441C92.515 198.729 92.931 199.155 93.2297 199.721C93.539 200.286 93.6937 200.969 93.6937 201.769V206.969H91.8857V202.041C91.8857 201.251 91.6884 200.649 91.2937 200.233C90.899 199.806 90.3604 199.593 89.6777 199.593C88.995 199.593 88.451 199.806 88.0457 200.233C87.651 200.649 87.4537 201.251 87.4537 202.041V206.969H85.6297V195.129H87.4537V199.177C87.763 198.803 88.1524 198.515 88.6217 198.313C89.1017 198.11 89.6244 198.009 90.1897 198.009ZM95.4123 202.521C95.4123 201.635 95.5936 200.851 95.9563 200.169C96.3296 199.486 96.831 198.958 97.4603 198.585C98.1003 198.201 98.8043 198.009 99.5723 198.009C100.266 198.009 100.868 198.147 101.38 198.425C101.903 198.691 102.319 199.027 102.628 199.433V198.153H104.468V206.969H102.628V205.657C102.319 206.073 101.898 206.419 101.364 206.697C100.831 206.974 100.223 207.113 99.5403 207.113C98.783 207.113 98.0896 206.921 97.4603 206.537C96.831 206.142 96.3296 205.598 95.9563 204.905C95.5936 204.201 95.4123 203.406 95.4123 202.521ZM102.628 202.553C102.628 201.945 102.5 201.417 102.244 200.969C101.999 200.521 101.674 200.179 101.268 199.945C100.863 199.71 100.426 199.593 99.9563 199.593C99.487 199.593 99.0496 199.71 98.6443 199.945C98.239 200.169 97.9083 200.505 97.6523 200.953C97.407 201.39 97.2843 201.913 97.2843 202.521C97.2843 203.129 97.407 203.662 97.6523 204.121C97.9083 204.579 98.239 204.931 98.6443 205.177C99.0603 205.411 99.4976 205.529 99.9563 205.529C100.426 205.529 100.863 205.411 101.268 205.177C101.674 204.942 101.999 204.601 102.244 204.153C102.5 203.694 102.628 203.161 102.628 202.553ZM110.272 205.337L112.768 198.153H114.704L111.344 206.969H109.168L105.824 198.153H107.776L110.272 205.337ZM124.163 202.345C124.163 202.675 124.141 202.974 124.099 203.241H117.363C117.416 203.945 117.677 204.51 118.147 204.937C118.616 205.363 119.192 205.577 119.875 205.577C120.856 205.577 121.549 205.166 121.955 204.345H123.923C123.656 205.155 123.171 205.822 122.467 206.345C121.773 206.857 120.909 207.113 119.875 207.113C119.032 207.113 118.275 206.926 117.603 206.553C116.941 206.169 116.419 205.635 116.035 204.953C115.661 204.259 115.475 203.459 115.475 202.553C115.475 201.646 115.656 200.851 116.019 200.169C116.392 199.475 116.909 198.942 117.571 198.569C118.243 198.195 119.011 198.009 119.875 198.009C120.707 198.009 121.448 198.19 122.099 198.553C122.749 198.915 123.256 199.427 123.619 200.089C123.981 200.739 124.163 201.491 124.163 202.345ZM122.259 201.769C122.248 201.097 122.008 200.558 121.539 200.153C121.069 199.747 120.488 199.545 119.795 199.545C119.165 199.545 118.627 199.747 118.179 200.153C117.731 200.547 117.464 201.086 117.379 201.769H122.259ZM129.506 202.521C129.506 201.635 129.687 200.851 130.05 200.169C130.423 199.486 130.925 198.958 131.554 198.585C132.194 198.201 132.898 198.009 133.666 198.009C134.359 198.009 134.962 198.147 135.474 198.425C135.997 198.691 136.413 199.027 136.722 199.433V198.153H138.562V206.969H136.722V205.657C136.413 206.073 135.991 206.419 135.458 206.697C134.925 206.974 134.317 207.113 133.634 207.113C132.877 207.113 132.183 206.921 131.554 206.537C130.925 206.142 130.423 205.598 130.05 204.905C129.687 204.201 129.506 203.406 129.506 202.521ZM136.722 202.553C136.722 201.945 136.594 201.417 136.338 200.969C136.093 200.521 135.767 200.179 135.362 199.945C134.957 199.71 134.519 199.593 134.05 199.593C133.581 199.593 133.143 199.71 132.738 199.945C132.333 200.169 132.002 200.505 131.746 200.953C131.501 201.39 131.378 201.913 131.378 202.521C131.378 203.129 131.501 203.662 131.746 204.121C132.002 204.579 132.333 204.931 132.738 205.177C133.154 205.411 133.591 205.529 134.05 205.529C134.519 205.529 134.957 205.411 135.362 205.177C135.767 204.942 136.093 204.601 136.338 204.153C136.594 203.694 136.722 203.161 136.722 202.553ZM146.938 199.433C147.205 198.985 147.557 198.638 147.994 198.393C148.442 198.137 148.97 198.009 149.578 198.009V199.897H149.114C148.399 199.897 147.855 200.078 147.482 200.441C147.119 200.803 146.938 201.433 146.938 202.329V206.969H145.114V198.153H146.938V199.433ZM159.335 202.345C159.335 202.675 159.313 202.974 159.271 203.241H152.535C152.588 203.945 152.849 204.51 153.319 204.937C153.788 205.363 154.364 205.577 155.047 205.577C156.028 205.577 156.721 205.166 157.127 204.345H159.095C158.828 205.155 158.343 205.822 157.639 206.345C156.945 206.857 156.081 207.113 155.047 207.113C154.204 207.113 153.447 206.926 152.775 206.553C152.113 206.169 151.591 205.635 151.207 204.953C150.833 204.259 150.647 203.459 150.647 202.553C150.647 201.646 150.828 200.851 151.191 200.169C151.564 199.475 152.081 198.942 152.743 198.569C153.415 198.195 154.183 198.009 155.047 198.009C155.879 198.009 156.62 198.19 157.271 198.553C157.921 198.915 158.428 199.427 158.791 200.089C159.153 200.739 159.335 201.491 159.335 202.345ZM157.431 201.769C157.42 201.097 157.18 200.558 156.711 200.153C156.241 199.747 155.66 199.545 154.967 199.545C154.337 199.545 153.799 199.747 153.351 200.153C152.903 200.547 152.636 201.086 152.551 201.769H157.431ZM164.682 198.009C165.364 198.009 165.967 198.147 166.49 198.425C167.023 198.691 167.439 199.027 167.738 199.433V198.153H169.578V207.113C169.578 207.923 169.407 208.643 169.066 209.273C168.724 209.913 168.228 210.414 167.578 210.777C166.938 211.139 166.17 211.321 165.274 211.321C164.079 211.321 163.087 211.038 162.298 210.473C161.508 209.918 161.06 209.161 160.954 208.201H162.762C162.9 208.659 163.194 209.027 163.642 209.305C164.1 209.593 164.644 209.737 165.274 209.737C166.01 209.737 166.602 209.513 167.05 209.065C167.508 208.617 167.738 207.966 167.738 207.113V205.641C167.428 206.057 167.007 206.409 166.474 206.697C165.951 206.974 165.354 207.113 164.682 207.113C163.914 207.113 163.21 206.921 162.57 206.537C161.94 206.142 161.439 205.598 161.066 204.905C160.703 204.201 160.522 203.406 160.522 202.521C160.522 201.635 160.703 200.851 161.066 200.169C161.439 199.486 161.94 198.958 162.57 198.585C163.21 198.201 163.914 198.009 164.682 198.009ZM167.738 202.553C167.738 201.945 167.61 201.417 167.354 200.969C167.108 200.521 166.783 200.179 166.378 199.945C165.972 199.71 165.535 199.593 165.066 199.593C164.596 199.593 164.159 199.71 163.754 199.945C163.348 200.169 163.018 200.505 162.762 200.953C162.516 201.39 162.394 201.913 162.394 202.521C162.394 203.129 162.516 203.662 162.762 204.121C163.018 204.579 163.348 204.931 163.754 205.177C164.17 205.411 164.607 205.529 165.066 205.529C165.535 205.529 165.972 205.411 166.378 205.177C166.783 204.942 167.108 204.601 167.354 204.153C167.61 203.694 167.738 203.161 167.738 202.553ZM172.901 196.985C172.571 196.985 172.293 196.873 172.069 196.649C171.845 196.425 171.733 196.147 171.733 195.817C171.733 195.486 171.845 195.209 172.069 194.985C172.293 194.761 172.571 194.649 172.901 194.649C173.221 194.649 173.493 194.761 173.717 194.985C173.941 195.209 174.053 195.486 174.053 195.817C174.053 196.147 173.941 196.425 173.717 196.649C173.493 196.873 173.221 196.985 172.901 196.985ZM173.797 198.153V206.969H171.973V198.153H173.797ZM179.392 207.113C178.699 207.113 178.075 206.99 177.52 206.745C176.976 206.489 176.544 206.147 176.224 205.721C175.904 205.283 175.734 204.798 175.712 204.265H177.6C177.632 204.638 177.808 204.953 178.128 205.209C178.459 205.454 178.87 205.577 179.36 205.577C179.872 205.577 180.267 205.481 180.544 205.289C180.832 205.086 180.976 204.83 180.976 204.521C180.976 204.19 180.816 203.945 180.496 203.785C180.187 203.625 179.691 203.449 179.008 203.257C178.347 203.075 177.808 202.899 177.392 202.729C176.976 202.558 176.614 202.297 176.304 201.945C176.006 201.593 175.856 201.129 175.856 200.553C175.856 200.083 175.995 199.657 176.272 199.273C176.55 198.878 176.944 198.569 177.456 198.345C177.979 198.121 178.576 198.009 179.248 198.009C180.251 198.009 181.056 198.265 181.664 198.777C182.283 199.278 182.614 199.966 182.656 200.841H180.832C180.8 200.446 180.64 200.131 180.352 199.897C180.064 199.662 179.675 199.545 179.184 199.545C178.704 199.545 178.336 199.635 178.08 199.817C177.824 199.998 177.696 200.238 177.696 200.537C177.696 200.771 177.782 200.969 177.952 201.129C178.123 201.289 178.331 201.417 178.576 201.513C178.822 201.598 179.184 201.71 179.664 201.849C180.304 202.019 180.827 202.195 181.232 202.377C181.648 202.547 182.006 202.803 182.304 203.145C182.603 203.486 182.758 203.939 182.768 204.505C182.768 205.006 182.63 205.454 182.352 205.849C182.075 206.243 181.68 206.553 181.168 206.777C180.667 207.001 180.075 207.113 179.392 207.113ZM186.867 199.641V204.521C186.867 204.851 186.942 205.091 187.091 205.241C187.251 205.379 187.518 205.449 187.891 205.449H189.011V206.969H187.571C186.75 206.969 186.12 206.777 185.683 206.393C185.246 206.009 185.027 205.385 185.027 204.521V199.641H183.987V198.153H185.027V195.961H186.867V198.153H189.011V199.641H186.867ZM198.772 202.345C198.772 202.675 198.751 202.974 198.708 203.241H191.972C192.026 203.945 192.287 204.51 192.756 204.937C193.226 205.363 193.802 205.577 194.484 205.577C195.466 205.577 196.159 205.166 196.564 204.345H198.532C198.266 205.155 197.78 205.822 197.076 206.345C196.383 206.857 195.519 207.113 194.484 207.113C193.642 207.113 192.884 206.926 192.212 206.553C191.551 206.169 191.028 205.635 190.644 204.953C190.271 204.259 190.084 203.459 190.084 202.553C190.084 201.646 190.266 200.851 190.628 200.169C191.002 199.475 191.519 198.942 192.18 198.569C192.852 198.195 193.62 198.009 194.484 198.009C195.316 198.009 196.058 198.19 196.708 198.553C197.359 198.915 197.866 199.427 198.228 200.089C198.591 200.739 198.772 201.491 198.772 202.345ZM196.868 201.769C196.858 201.097 196.618 200.558 196.148 200.153C195.679 199.747 195.098 199.545 194.404 199.545C193.775 199.545 193.236 199.747 192.788 200.153C192.34 200.547 192.074 201.086 191.988 201.769H196.868ZM202.391 199.433C202.658 198.985 203.01 198.638 203.447 198.393C203.895 198.137 204.423 198.009 205.031 198.009V199.897H204.567C203.853 199.897 203.309 200.078 202.935 200.441C202.573 200.803 202.391 201.433 202.391 202.329V206.969H200.567V198.153H202.391V199.433ZM214.788 202.345C214.788 202.675 214.766 202.974 214.724 203.241H207.988C208.041 203.945 208.302 204.51 208.772 204.937C209.241 205.363 209.817 205.577 210.5 205.577C211.481 205.577 212.174 205.166 212.58 204.345H214.548C214.281 205.155 213.796 205.822 213.092 206.345C212.398 206.857 211.534 207.113 210.5 207.113C209.657 207.113 208.9 206.926 208.228 206.553C207.566 206.169 207.044 205.635 206.66 204.953C206.286 204.259 206.1 203.459 206.1 202.553C206.1 201.646 206.281 200.851 206.644 200.169C207.017 199.475 207.534 198.942 208.196 198.569C208.868 198.195 209.636 198.009 210.5 198.009C211.332 198.009 212.073 198.19 212.724 198.553C213.374 198.915 213.881 199.427 214.244 200.089C214.606 200.739 214.788 201.491 214.788 202.345ZM212.884 201.769C212.873 201.097 212.633 200.558 212.164 200.153C211.694 199.747 211.113 199.545 210.42 199.545C209.79 199.545 209.252 199.747 208.804 200.153C208.356 200.547 208.089 201.086 208.004 201.769H212.884ZM215.975 202.521C215.975 201.635 216.156 200.851 216.519 200.169C216.892 199.486 217.393 198.958 218.023 198.585C218.663 198.201 219.372 198.009 220.151 198.009C220.727 198.009 221.292 198.137 221.847 198.393C222.412 198.638 222.86 198.969 223.191 199.385V195.129H225.031V206.969H223.191V205.641C222.892 206.067 222.476 206.419 221.943 206.697C221.42 206.974 220.817 207.113 220.135 207.113C219.367 207.113 218.663 206.921 218.023 206.537C217.393 206.142 216.892 205.598 216.519 204.905C216.156 204.201 215.975 203.406 215.975 202.521ZM223.191 202.553C223.191 201.945 223.063 201.417 222.807 200.969C222.561 200.521 222.236 200.179 221.831 199.945C221.425 199.71 220.988 199.593 220.519 199.593C220.049 199.593 219.612 199.71 219.207 199.945C218.801 200.169 218.471 200.505 218.215 200.953C217.969 201.39 217.847 201.913 217.847 202.521C217.847 203.129 217.969 203.662 218.215 204.121C218.471 204.579 218.801 204.931 219.207 205.177C219.623 205.411 220.06 205.529 220.519 205.529C220.988 205.529 221.425 205.411 221.831 205.177C222.236 204.942 222.561 204.601 222.807 204.153C223.063 203.694 223.191 203.161 223.191 202.553ZM230.975 202.553C230.975 201.646 231.156 200.851 231.519 200.169C231.892 199.475 232.404 198.942 233.055 198.569C233.705 198.195 234.452 198.009 235.295 198.009C236.361 198.009 237.241 198.265 237.935 198.777C238.639 199.278 239.113 199.998 239.359 200.937H237.391C237.231 200.499 236.975 200.158 236.623 199.913C236.271 199.667 235.828 199.545 235.295 199.545C234.548 199.545 233.951 199.811 233.503 200.345C233.065 200.867 232.847 201.603 232.847 202.553C232.847 203.502 233.065 204.243 233.503 204.777C233.951 205.31 234.548 205.577 235.295 205.577C236.351 205.577 237.049 205.113 237.391 204.185H239.359C239.103 205.081 238.623 205.795 237.919 206.329C237.215 206.851 236.34 207.113 235.295 207.113C234.452 207.113 233.705 206.926 233.055 206.553C232.404 206.169 231.892 205.635 231.519 204.953C231.156 204.259 230.975 203.459 230.975 202.553ZM243.001 199.433C243.267 198.985 243.619 198.638 244.057 198.393C244.505 198.137 245.033 198.009 245.641 198.009V199.897H245.177C244.462 199.897 243.918 200.078 243.545 200.441C243.182 200.803 243.001 201.433 243.001 202.329V206.969H241.177V198.153H243.001V199.433ZM255.397 202.345C255.397 202.675 255.376 202.974 255.333 203.241H248.597C248.651 203.945 248.912 204.51 249.381 204.937C249.851 205.363 250.427 205.577 251.109 205.577C252.091 205.577 252.784 205.166 253.189 204.345H255.157C254.891 205.155 254.405 205.822 253.701 206.345C253.008 206.857 252.144 207.113 251.109 207.113C250.267 207.113 249.509 206.926 248.837 206.553C248.176 206.169 247.653 205.635 247.269 204.953C246.896 204.259 246.709 203.459 246.709 202.553C246.709 201.646 246.891 200.851 247.253 200.169C247.627 199.475 248.144 198.942 248.805 198.569C249.477 198.195 250.245 198.009 251.109 198.009C251.941 198.009 252.683 198.19 253.333 198.553C253.984 198.915 254.491 199.427 254.853 200.089C255.216 200.739 255.397 201.491 255.397 202.345ZM253.493 201.769C253.483 201.097 253.243 200.558 252.773 200.153C252.304 199.747 251.723 199.545 251.029 199.545C250.4 199.545 249.861 199.747 249.413 200.153C248.965 200.547 248.699 201.086 248.613 201.769H253.493ZM256.584 202.521C256.584 201.635 256.766 200.851 257.128 200.169C257.502 199.486 258.003 198.958 258.632 198.585C259.272 198.201 259.982 198.009 260.76 198.009C261.336 198.009 261.902 198.137 262.456 198.393C263.022 198.638 263.47 198.969 263.8 199.385V195.129H265.64V206.969H263.8V205.641C263.502 206.067 263.086 206.419 262.552 206.697C262.03 206.974 261.427 207.113 260.744 207.113C259.976 207.113 259.272 206.921 258.632 206.537C258.003 206.142 257.502 205.598 257.128 204.905C256.766 204.201 256.584 203.406 256.584 202.521ZM263.8 202.553C263.8 201.945 263.672 201.417 263.416 200.969C263.171 200.521 262.846 200.179 262.44 199.945C262.035 199.71 261.598 199.593 261.128 199.593C260.659 199.593 260.222 199.71 259.816 199.945C259.411 200.169 259.08 200.505 258.824 200.953C258.579 201.39 258.456 201.913 258.456 202.521C258.456 203.129 258.579 203.662 258.824 204.121C259.08 204.579 259.411 204.931 259.816 205.177C260.232 205.411 260.67 205.529 261.128 205.529C261.598 205.529 262.035 205.411 262.44 205.177C262.846 204.942 263.171 204.601 263.416 204.153C263.672 203.694 263.8 203.161 263.8 202.553ZM268.964 196.985C268.633 196.985 268.356 196.873 268.132 196.649C267.908 196.425 267.796 196.147 267.796 195.817C267.796 195.486 267.908 195.209 268.132 194.985C268.356 194.761 268.633 194.649 268.964 194.649C269.284 194.649 269.556 194.761 269.78 194.985C270.004 195.209 270.116 195.486 270.116 195.817C270.116 196.147 270.004 196.425 269.78 196.649C269.556 196.873 269.284 196.985 268.964 196.985ZM269.86 198.153V206.969H268.036V198.153H269.86ZM274.383 199.641V204.521C274.383 204.851 274.457 205.091 274.607 205.241C274.767 205.379 275.033 205.449 275.407 205.449H276.527V206.969H275.087C274.265 206.969 273.636 206.777 273.199 206.393C272.761 206.009 272.543 205.385 272.543 204.521V199.641H271.503V198.153H272.543V195.961H274.383V198.153H276.527V199.641H274.383ZM281.756 202.553C281.756 201.646 281.937 200.851 282.3 200.169C282.673 199.475 283.185 198.942 283.836 198.569C284.487 198.195 285.233 198.009 286.076 198.009C287.143 198.009 288.023 198.265 288.716 198.777C289.42 199.278 289.895 199.998 290.14 200.937H288.172C288.012 200.499 287.756 200.158 287.404 199.913C287.052 199.667 286.609 199.545 286.076 199.545C285.329 199.545 284.732 199.811 284.284 200.345C283.847 200.867 283.628 201.603 283.628 202.553C283.628 203.502 283.847 204.243 284.284 204.777C284.732 205.31 285.329 205.577 286.076 205.577C287.132 205.577 287.831 205.113 288.172 204.185H290.14C289.884 205.081 289.404 205.795 288.7 206.329C287.996 206.851 287.121 207.113 286.076 207.113C285.233 207.113 284.487 206.926 283.836 206.553C283.185 206.169 282.673 205.635 282.3 204.953C281.937 204.259 281.756 203.459 281.756 202.553ZM291.35 202.521C291.35 201.635 291.531 200.851 291.894 200.169C292.267 199.486 292.768 198.958 293.398 198.585C294.038 198.201 294.742 198.009 295.51 198.009C296.203 198.009 296.806 198.147 297.318 198.425C297.84 198.691 298.256 199.027 298.566 199.433V198.153H300.406V206.969H298.566V205.657C298.256 206.073 297.835 206.419 297.302 206.697C296.768 206.974 296.16 207.113 295.478 207.113C294.72 207.113 294.027 206.921 293.398 206.537C292.768 206.142 292.267 205.598 291.894 204.905C291.531 204.201 291.35 203.406 291.35 202.521ZM298.566 202.553C298.566 201.945 298.438 201.417 298.182 200.969C297.936 200.521 297.611 200.179 297.206 199.945C296.8 199.71 296.363 199.593 295.894 199.593C295.424 199.593 294.987 199.71 294.582 199.945C294.176 200.169 293.846 200.505 293.59 200.953C293.344 201.39 293.222 201.913 293.222 202.521C293.222 203.129 293.344 203.662 293.59 204.121C293.846 204.579 294.176 204.931 294.582 205.177C294.998 205.411 295.435 205.529 295.894 205.529C296.363 205.529 296.8 205.411 297.206 205.177C297.611 204.942 297.936 204.601 298.182 204.153C298.438 203.694 298.566 203.161 298.566 202.553ZM304.626 199.433C304.892 198.985 305.244 198.638 305.682 198.393C306.13 198.137 306.658 198.009 307.266 198.009V199.897H306.802C306.087 199.897 305.543 200.078 305.17 200.441C304.807 200.803 304.626 201.433 304.626 202.329V206.969H302.802V198.153H304.626V199.433ZM308.334 202.521C308.334 201.635 308.516 200.851 308.878 200.169C309.252 199.486 309.753 198.958 310.382 198.585C311.022 198.201 311.732 198.009 312.51 198.009C313.086 198.009 313.652 198.137 314.206 198.393C314.772 198.638 315.22 198.969 315.55 199.385V195.129H317.39V206.969H315.55V205.641C315.252 206.067 314.836 206.419 314.302 206.697C313.78 206.974 313.177 207.113 312.494 207.113C311.726 207.113 311.022 206.921 310.382 206.537C309.753 206.142 309.252 205.598 308.878 204.905C308.516 204.201 308.334 203.406 308.334 202.521ZM315.55 202.553C315.55 201.945 315.422 201.417 315.166 200.969C314.921 200.521 314.596 200.179 314.19 199.945C313.785 199.71 313.348 199.593 312.878 199.593C312.409 199.593 311.972 199.71 311.566 199.945C311.161 200.169 310.83 200.505 310.574 200.953C310.329 201.39 310.206 201.913 310.206 202.521C310.206 203.129 310.329 203.662 310.574 204.121C310.83 204.579 311.161 204.931 311.566 205.177C311.982 205.411 312.42 205.529 312.878 205.529C313.348 205.529 313.785 205.411 314.19 205.177C314.596 204.942 314.921 204.601 315.166 204.153C315.422 203.694 315.55 203.161 315.55 202.553Z" fill="#818888"/>
<g filter="url(#filter0_iii_984_1638)">
<path d="M239.862 1.81543L63.8927 20.7183C54.5631 21.7205 47.8124 30.096 48.8146 39.4256L59.6266 140.076C60.6288 149.406 69.0044 156.156 78.334 155.154L254.303 136.251C263.633 135.249 270.384 126.874 269.381 117.544L258.569 16.8935C257.567 7.56391 249.192 0.813236 239.862 1.81543Z" fill="url(#paint0_linear_984_1638)"/>
</g>
<path d="M51.839 67.5801L49.3187 44.118L259.081 21.5851L261.601 45.0471L51.839 67.5801Z" fill="url(#paint1_linear_984_1638)"/>
<path d="M51.839 67.5801L49.3187 44.118L259.081 21.5851L261.601 45.0471L51.839 67.5801Z" fill="url(#paint2_linear_984_1638)"/>
<path d="M51.839 67.5801L49.3187 44.118L259.081 21.5851L261.601 45.0471L51.839 67.5801Z" fill="url(#paint3_linear_984_1638)"/>
<g filter="url(#filter1_dii_984_1638)">
<path d="M84.367 109.653C82.8736 109.813 81.3777 109.374 80.2082 108.431C79.0388 107.489 78.2917 106.12 78.1313 104.627L76.115 85.8572C75.9546 84.3638 76.394 82.8678 77.3365 81.6984C78.2791 80.529 79.6476 79.7819 81.141 79.6214L210.884 65.6842C212.378 65.5238 213.874 65.9632 215.043 66.9058C216.213 67.8483 216.96 69.2169 217.12 70.7103L219.136 89.4799C219.297 90.9733 218.857 92.4693 217.915 93.6387C216.972 94.8082 215.604 95.5553 214.11 95.7157L84.367 109.653Z" fill="#E2DDDE"/>
</g>
<g filter="url(#filter2_dii_984_1638)">
<path d="M169.895 81.7146L88.7124 90.4354C86.6392 90.6581 85.139 92.5193 85.3617 94.5926C85.5845 96.6658 87.4457 98.1659 89.5189 97.9432L170.701 89.2225C172.775 88.9998 174.275 87.1386 174.052 85.0653C173.829 82.9921 171.968 81.4919 169.895 81.7146Z" fill="url(#paint4_linear_984_1638)"/>
</g>
<g filter="url(#filter3_dii_984_1638)">
<path d="M245.591 94.9466L230.342 96.5846C227.232 96.9186 224.982 99.7105 225.316 102.82L226.954 118.069C227.288 121.179 230.08 123.429 233.19 123.095L248.438 121.457C251.548 121.123 253.798 118.331 253.464 115.221L251.826 99.9726C251.492 96.8627 248.7 94.6125 245.591 94.9466Z" fill="url(#paint5_linear_984_1638)"/>
</g>
<defs>
<filter id="filter0_iii_984_1638" x="48.316" y="1.3168" width="221.564" height="154.336" filterUnits="userSpaceOnUse" color-interpolation-filters="sRGB">
<feFlood flood-opacity="0" result="BackgroundImageFix"/>
<feBlend mode="normal" in="SourceGraphic" in2="BackgroundImageFix" result="shape"/>
<feColorMatrix in="SourceAlpha" type="matrix" values="0 0 0 0 0 0 0 0 0 0 0 0 0 0 0 0 0 0 127 0" result="hardAlpha"/>
<feOffset dx="0.4" dy="-0.4"/>
<feGaussianBlur stdDeviation="0.375"/>
<feComposite in2="hardAlpha" operator="arithmetic" k2="-1" k3="1"/>
<feColorMatrix type="matrix" values="0 0 0 0 0.254902 0 0 0 0 0.580392 0 0 0 0 0.764706 0 0 0 1 0"/>
<feBlend mode="normal" in2="shape" result="effect1_innerShadow_984_1638"/>
<feColorMatrix in="SourceAlpha" type="matrix" values="0 0 0 0 0 0 0 0 0 0 0 0 0 0 0 0 0 0 127 0" result="hardAlpha"/>
<feOffset dy="-0.4"/>
<feGaussianBlur stdDeviation="0.375"/>
<feComposite in2="hardAlpha" operator="arithmetic" k2="-1" k3="1"/>
<feColorMatrix type="matrix" values="0 0 0 0 0.223529 0 0 0 0 0.419608 0 0 0 0 0.639216 0 0 0 1 0"/>
<feBlend mode="normal" in2="effect1_innerShadow_984_1638" result="effect2_innerShadow_984_1638"/>
<feColorMatrix in="SourceAlpha" type="matrix" values="0 0 0 0 0 0 0 0 0 0 0 0 0 0 0 0 0 0 127 0" result="hardAlpha"/>
<feOffset dx="-0.4" dy="0.4"/>
<feGaussianBlur stdDeviation="0.375"/>
<feComposite in2="hardAlpha" operator="arithmetic" k2="-1" k3="1"/>
<feColorMatrix type="matrix" values="0 0 0 0 0.380392 0 0 0 0 0.929412 0 0 0 0 1 0 0 0 1 0"/>
<feBlend mode="normal" in2="effect2_innerShadow_984_1638" result="effect3_innerShadow_984_1638"/>
</filter>
<filter id="filter1_dii_984_1638" x="75.7826" y="65.5519" width="143.486" height="44.4334" filterUnits="userSpaceOnUse" color-interpolation-filters="sRGB">
<feFlood flood-opacity="0" result="BackgroundImageFix"/>
<feColorMatrix in="SourceAlpha" type="matrix" values="0 0 0 0 0 0 0 0 0 0 0 0 0 0 0 0 0 0 127 0" result="hardAlpha"/>
<feOffset dx="-0.1" dy="0.1"/>
<feGaussianBlur stdDeviation="0.1"/>
<feComposite in2="hardAlpha" operator="out"/>
<feColorMatrix type="matrix" values="0 0 0 0 0.211765 0 0 0 0 0.580392 0 0 0 0 0.807843 0 0 0 1 0"/>
<feBlend mode="normal" in2="BackgroundImageFix" result="effect1_dropShadow_984_1638"/>
<feBlend mode="normal" in="SourceGraphic" in2="effect1_dropShadow_984_1638" result="shape"/>
<feColorMatrix in="SourceAlpha" type="matrix" values="0 0 0 0 0 0 0 0 0 0 0 0 0 0 0 0 0 0 127 0" result="hardAlpha"/>
<feOffset dx="0.1" dy="-0.1"/>
<feGaussianBlur stdDeviation="0.075"/>
<feComposite in2="hardAlpha" operator="arithmetic" k2="-1" k3="1"/>
<feColorMatrix type="matrix" values="0 0 0 0 0.788235 0 0 0 0 0.764706 0 0 0 0 0.784314 0 0 0 1 0"/>
<feBlend mode="normal" in2="shape" result="effect2_innerShadow_984_1638"/>
<feColorMatrix in="SourceAlpha" type="matrix" values="0 0 0 0 0 0 0 0 0 0 0 0 0 0 0 0 0 0 127 0" result="hardAlpha"/>
<feOffset dx="-0.1" dy="0.1"/>
<feGaussianBlur stdDeviation="0.075"/>
<feComposite in2="hardAlpha" operator="arithmetic" k2="-1" k3="1"/>
<feColorMatrix type="matrix" values="0 0 0 0 0.921569 0 0 0 0 0.92549 0 0 0 0 0.92549 0 0 0 1 0"/>
<feBlend mode="normal" in2="effect2_innerShadow_984_1638" result="effect3_innerShadow_984_1638"/>
</filter>
<filter id="filter2_dii_984_1638" x="85.2398" y="81.5927" width="88.9342" height="16.5723" filterUnits="userSpaceOnUse" color-interpolation-filters="sRGB">
<feFlood flood-opacity="0" result="BackgroundImageFix"/>
<feColorMatrix in="SourceAlpha" type="matrix" values="0 0 0 0 0 0 0 0 0 0 0 0 0 0 0 0 0 0 127 0" result="hardAlpha"/>
<feOffset dy="0.1"/>
<feGaussianBlur stdDeviation="0.05"/>
<feComposite in2="hardAlpha" operator="out"/>
<feColorMatrix type="matrix" values="0 0 0 0 0.819608 0 0 0 0 0.788235 0 0 0 0 0.792157 0 0 0 1 0"/>
<feBlend mode="normal" in2="BackgroundImageFix" result="effect1_dropShadow_984_1638"/>
<feBlend mode="normal" in="SourceGraphic" in2="effect1_dropShadow_984_1638" result="shape"/>
<feColorMatrix in="SourceAlpha" type="matrix" values="0 0 0 0 0 0 0 0 0 0 0 0 0 0 0 0 0 0 127 0" result="hardAlpha"/>
<feOffset dy="-0.1"/>
<feGaussianBlur stdDeviation="0.05"/>
<feComposite in2="hardAlpha" operator="arithmetic" k2="-1" k3="1"/>
<feColorMatrix type="matrix" values="0 0 0 0 0.615686 0 0 0 0 0.592157 0 0 0 0 0.592157 0 0 0 1 0"/>
<feBlend mode="normal" in2="shape" result="effect2_innerShadow_984_1638"/>
<feColorMatrix in="SourceAlpha" type="matrix" values="0 0 0 0 0 0 0 0 0 0 0 0 0 0 0 0 0 0 127 0" result="hardAlpha"/>
<feOffset dy="0.1"/>
<feGaussianBlur stdDeviation="0.05"/>
<feComposite in2="hardAlpha" operator="arithmetic" k2="-1" k3="1"/>
<feColorMatrix type="matrix" values="0 0 0 0 0.670588 0 0 0 0 0.662745 0 0 0 0 0.662745 0 0 0 1 0"/>
<feBlend mode="normal" in2="effect2_innerShadow_984_1638" result="effect3_innerShadow_984_1638"/>
</filter>
<filter id="filter3_dii_984_1638" x="224.783" y="94.7137" width="28.814" height="28.814" filterUnits="userSpaceOnUse" color-interpolation-filters="sRGB">
<feFlood flood-opacity="0" result="BackgroundImageFix"/>
<feColorMatrix in="SourceAlpha" type="matrix" values="0 0 0 0 0 0 0 0 0 0 0 0 0 0 0 0 0 0 127 0" result="hardAlpha"/>
<feOffset dx="-0.2" dy="0.1"/>
<feGaussianBlur stdDeviation="0.15"/>
<feComposite in2="hardAlpha" operator="out"/>
<feColorMatrix type="matrix" values="0 0 0 0 0.2 0 0 0 0 0.596078 0 0 0 0 0.835294 0 0 0 1 0"/>
<feBlend mode="normal" in2="BackgroundImageFix" result="effect1_dropShadow_984_1638"/>
<feBlend mode="normal" in="SourceGraphic" in2="effect1_dropShadow_984_1638" result="shape"/>
<feColorMatrix in="SourceAlpha" type="matrix" values="0 0 0 0 0 0 0 0 0 0 0 0 0 0 0 0 0 0 127 0" result="hardAlpha"/>
<feOffset dx="-0.1" dy="0.1"/>
<feGaussianBlur stdDeviation="0.2"/>
<feComposite in2="hardAlpha" operator="arithmetic" k2="-1" k3="1"/>
<feColorMatrix type="matrix" values="0 0 0 0 0.996078 0 0 0 0 0.905882 0 0 0 0 0.309804 0 0 0 1 0"/>
<feBlend mode="normal" in2="shape" result="effect2_innerShadow_984_1638"/>
<feColorMatrix in="SourceAlpha" type="matrix" values="0 0 0 0 0 0 0 0 0 0 0 0 0 0 0 0 0 0 127 0" result="hardAlpha"/>
<feOffset dx="0.1" dy="-0.1"/>
<feGaussianBlur stdDeviation="0.2"/>
<feComposite in2="hardAlpha" operator="arithmetic" k2="-1" k3="1"/>
<feColorMatrix type="matrix" values="0 0 0 0 0.870588 0 0 0 0 0.694118 0 0 0 0 0.2 0 0 0 1 0"/>
<feBlend mode="normal" in2="effect2_innerShadow_984_1638" result="effect3_innerShadow_984_1638"/>
</filter>
<linearGradient id="paint0_linear_984_1638" x1="151.877" y1="11.2668" x2="165.664" y2="139.606" gradientUnits="userSpaceOnUse">
<stop stop-color="#57D8F2"/>
<stop offset="1" stop-color="#36A3E7"/>
</linearGradient>
<linearGradient id="paint1_linear_984_1638" x1="51.1084" y1="60.7779" x2="260.863" y2="38.2458" gradientUnits="userSpaceOnUse">
<stop stop-color="#5D476D"/>
<stop offset="0.88" stop-color="#3D3B3B"/>
</linearGradient>
<linearGradient id="paint2_linear_984_1638" x1="50.8914" y1="58.7583" x2="62.1832" y2="57.5453" gradientUnits="userSpaceOnUse">
<stop offset="0.239" stop-color="#513E5F"/>
<stop offset="0.707" stop-color="#513E5F" stop-opacity="0"/>
</linearGradient>
<linearGradient id="paint3_linear_984_1638" x1="260.762" y1="37.3073" x2="255.597" y2="37.8622" gradientUnits="userSpaceOnUse">
<stop offset="0.328" stop-color="#474646"/>
<stop offset="1" stop-color="#474646" stop-opacity="0"/>
</linearGradient>
<linearGradient id="paint4_linear_984_1638" x1="85.3617" y1="94.5926" x2="167.01" y2="85.8218" gradientUnits="userSpaceOnUse">
<stop stop-color="#A5A0A1"/>
<stop offset="1" stop-color="#A6A2A2"/>
</linearGradient>
<linearGradient id="paint5_linear_984_1638" x1="252.355" y1="104.898" x2="230.77" y2="107.216" gradientUnits="userSpaceOnUse">
<stop stop-color="#F9D940"/>
<stop offset="1" stop-color="#EAC037"/>
</linearGradient>
</defs>
</svg>
