<svg width="48" height="48" viewBox="0 0 48 48" fill="none" xmlns="http://www.w3.org/2000/svg">
<circle cx="24" cy="24" r="24" fill="url(#paint0_linear_179_732)"/>
<path d="M28.34 14C31.73 14 34 16.38 34 19.92V28.091C34 31.62 31.73 34 28.34 34H19.67C16.28 34 14 31.62 14 28.091V19.92C14 16.38 16.28 14 19.67 14H28.34ZM28.18 21C27.84 20.66 27.28 20.66 26.94 21L22.81 25.13L21.06 23.38C20.72 23.04 20.16 23.04 19.82 23.38C19.48 23.72 19.48 24.27 19.82 24.62L22.2 26.99C22.37 27.16 22.59 27.24 22.81 27.24C23.04 27.24 23.26 27.16 23.43 26.99L28.18 22.24C28.52 21.9 28.52 21.35 28.18 21Z" fill="white"/>
<defs>
<linearGradient id="paint0_linear_179_732" x1="24" y1="0" x2="24.0689" y2="51.6137" gradientUnits="userSpaceOnUse">
<stop stop-color="#4BB1D3"/>
<stop offset="1" stop-color="#B1E5F7" stop-opacity="0.8"/>
</linearGradient>
</defs>
</svg>
