<svg width="37" height="37" viewBox="0 0 37 37" fill="none" xmlns="http://www.w3.org/2000/svg">
<path d="M18.5 0L21.5771 4.02342L26.0246 1.59941L27.1992 6.52655L32.2482 6.12108L31.3172 11.1L36.0945 12.7832L33.2189 16.953L36.8987 20.4338L32.5756 23.0735L34.5215 27.75L29.4985 28.4031L29.374 33.4668L24.5197 32.0205L22.3464 36.5957L18.5 33.3L14.6536 36.5957L12.4803 32.0205L7.62597 33.4668L7.50146 28.4031L2.47853 27.75L4.42436 23.0735L0.101345 20.4338L3.78108 16.953L0.905455 12.7832L5.68282 11.1L4.75182 6.12108L9.80078 6.52655L10.9754 1.59941L15.4229 4.02342L18.5 0Z" fill="#00BFFF"/>
</svg>
