<svg width="32" height="32" viewBox="0 0 32 32" fill="none" xmlns="http://www.w3.org/2000/svg">
<rect width="32" height="32" rx="16" fill="#474748"/>
<path fill-rule="evenodd" clip-rule="evenodd" d="M15.6167 24.6258L15.675 24.6592L15.6983 24.6725C15.7909 24.7225 15.8944 24.7487 15.9996 24.7487C16.1048 24.7487 16.2083 24.7225 16.3008 24.6725L16.3242 24.66L16.3833 24.6258C16.7093 24.4326 17.0273 24.2263 17.3367 24.0075C18.1376 23.4421 18.8859 22.8056 19.5725 22.1058C21.1925 20.4475 22.875 17.9558 22.875 14.75C22.875 12.9266 22.1507 11.178 20.8614 9.88864C19.572 8.59933 17.8234 7.875 16 7.875C14.1766 7.875 12.428 8.59933 11.1386 9.88864C9.84933 11.178 9.125 12.9266 9.125 14.75C9.125 17.955 10.8083 20.4475 12.4275 22.1058C13.1139 22.8056 13.8619 23.442 14.6625 24.0075C14.9721 24.2263 15.2905 24.4326 15.6167 24.6258ZM16 17.25C16.663 17.25 17.2989 16.9866 17.7678 16.5178C18.2366 16.0489 18.5 15.413 18.5 14.75C18.5 14.087 18.2366 13.4511 17.7678 12.9822C17.2989 12.5134 16.663 12.25 16 12.25C15.337 12.25 14.7011 12.5134 14.2322 12.9822C13.7634 13.4511 13.5 14.087 13.5 14.75C13.5 15.413 13.7634 16.0489 14.2322 16.5178C14.7011 16.9866 15.337 17.25 16 17.25Z" fill="#474748"/>
<path d="M23.0833 14.4156C23.0833 20.8424 16.2083 24.539 16.2083 24.539C16.2083 24.539 9.33325 20.8424 9.33325 14.4156C9.33325 12.6257 10.0576 10.9091 11.3469 9.64345C12.6362 8.37779 14.3849 7.66675 16.2083 7.66675C18.0316 7.66675 19.7803 8.37779 21.0696 9.64345C22.3589 10.9091 23.0833 12.6257 23.0833 14.4156Z" stroke="white" stroke-width="1.25" stroke-linecap="round" stroke-linejoin="round"/>
<path d="M18.5 14.75C18.5 15.413 18.2366 16.0489 17.7678 16.5178C17.2989 16.9866 16.663 17.25 16 17.25C15.337 17.25 14.7011 16.9866 14.2322 16.5178C13.7634 16.0489 13.5 15.413 13.5 14.75C13.5 14.087 13.7634 13.4511 14.2322 12.9822C14.7011 12.5134 15.337 12.25 16 12.25C16.663 12.25 17.2989 12.5134 17.7678 12.9822C18.2366 13.4511 18.5 14.087 18.5 14.75Z" fill="white"/>
</svg>
