<svg width="318" height="193" viewBox="0 0 318 193" fill="none" xmlns="http://www.w3.org/2000/svg">
<g clip-path="url(#clip0_641_792)">
<rect y="26" width="318" height="167" rx="10" fill="white"/>
<path d="M261.466 55.2792L268.419 55.3207C270.557 63.4463 277.627 69.3732 286.063 69.4235C288.962 69.4408 291.713 68.7628 294.156 67.5336C295.712 78.6795 304.885 87.2734 316.014 87.3398C328.293 87.4129 338.299 77.0787 338.375 64.2769C338.393 61.2665 337.858 58.411 336.876 55.7331L337.887 55.7391C345.349 55.7836 351.48 49.5399 351.526 41.7524L351.539 39.6518C351.582 32.4049 345.945 26.4865 339.001 26.4451L261.308 25.982C253.727 25.9369 247.537 32.3209 247.49 40.2182L247.488 40.5698C247.44 48.6604 253.704 55.233 261.466 55.2792Z" fill="#B8EAFA"/>
<path d="M190.211 45.41L198.117 45.4572C200.549 54.6978 208.589 61.4379 218.182 61.4951C221.479 61.5147 224.608 60.7437 227.386 59.3459C229.156 72.0211 239.587 81.7942 252.243 81.8696C266.206 81.9528 277.586 70.2006 277.673 55.6423C277.693 52.2188 277.085 48.9716 275.967 45.9262L277.117 45.9331C285.604 45.9836 292.575 38.8832 292.628 30.0273L292.642 27.6383C292.691 19.3971 286.281 12.6667 278.384 12.6197L190.031 12.093C181.41 12.0416 174.37 19.3016 174.317 28.2825L174.314 28.6823C174.259 37.8831 181.384 45.3574 190.211 45.41Z" fill="#B8EAFA"/>
<path d="M236.924 184.775L230.477 184.683C228.554 177.859 222.042 172.836 214.22 172.724C211.531 172.686 208.975 173.231 206.7 174.24C205.34 164.891 196.898 157.617 186.578 157.469C175.192 157.307 165.835 165.881 165.669 176.604C165.63 179.126 166.105 181.522 166.996 183.773L166.059 183.76C159.139 183.661 153.407 188.841 153.306 195.364L153.279 197.123C153.185 203.193 158.368 208.197 164.807 208.289L236.853 209.318C243.882 209.418 249.671 204.121 249.773 197.506L249.778 197.212C249.882 190.435 244.122 184.878 236.924 184.775Z" fill="#B8EAFA"/>
<path d="M302.929 193.629L295.598 193.525C293.411 185.764 286.006 180.052 277.11 179.925C274.053 179.881 271.145 180.501 268.558 181.649C267.012 171.017 257.411 162.745 245.675 162.577C232.727 162.392 222.086 172.143 221.898 184.337C221.853 187.205 222.393 189.93 223.407 192.49L222.34 192.475C214.471 192.363 207.953 198.253 207.838 205.671L207.807 207.672C207.7 214.575 213.594 220.266 220.917 220.37L302.848 221.539C310.842 221.653 317.425 215.63 317.541 208.107L317.546 207.773C317.666 200.066 311.115 193.746 302.929 193.629Z" fill="#B8EAFA"/>
<path d="M93.0669 189.763L83.2465 184.477C85.9845 172.037 80.1593 158.816 68.2539 152.407C64.1627 150.204 59.7925 149.042 55.4609 148.843C61.1426 132.807 54.2402 114.449 38.5328 105.994C21.21 96.6682 -0.274004 102.931 -9.43607 119.95C-11.5904 123.952 -12.8559 128.166 -13.3609 132.48L-14.781 131.715C-25.3152 126.044 -38.4065 129.768 -43.9792 140.12L-45.4817 142.911C-50.6649 152.539 -46.8745 164.679 -37.0766 169.954L72.5669 228.978C83.2589 234.734 96.5397 230.874 102.194 220.371L102.446 219.902C108.24 209.14 104.018 195.659 93.0669 189.763Z" fill="#B8EAFA"/>
<path d="M150.244 188.847L144.227 188.635C142.078 184.823 135.744 181.89 128.443 181.633C125.934 181.544 123.578 181.781 121.509 182.281C119.754 177.09 111.502 172.867 101.87 172.527C91.2433 172.152 82.9639 176.647 83.3672 182.557C83.4621 183.947 84.0297 185.281 84.9782 186.545L84.1029 186.514C77.6442 186.286 72.5685 189 72.8139 192.595L72.88 193.565C73.1083 196.91 78.2025 199.8 84.2127 200.012L151.455 202.382C158.016 202.613 163.138 199.837 162.889 196.191L162.878 196.029C162.623 192.293 156.962 189.084 150.244 188.847Z" fill="#B8EAFA"/>
</g>
<circle cx="159" cy="25" r="25" fill="#B8EAFA"/>
<path d="M173 24.9933L169.784 21.2742L170.232 16.3512L165.473 15.2542L162.982 11L158.5 12.9532L154.018 11L151.527 15.2542L146.768 16.3378L147.216 21.2609L144 24.9933L147.216 28.7124L146.768 33.6488L151.527 34.7458L154.018 39L158.5 37.0334L162.982 38.9866L165.473 34.7324L170.232 33.6354L169.784 28.7124L173 24.9933ZM155.864 31.6823L150.591 26.3311L152.45 24.4448L155.864 27.8963L164.55 19.0803L166.409 20.9799L155.864 31.6823Z" fill="#018BFB"/>
<circle cx="159" cy="25" r="9" fill="white"/>
<path d="M164.089 21.6818L163.568 21.1609C163.353 20.9464 163.003 20.9464 162.786 21.1609L157.324 26.6248L154.463 23.7636C154.249 23.549 153.898 23.549 153.682 23.7636L153.161 24.2845C152.946 24.4991 152.946 24.8494 153.161 25.0658L156.932 28.8368C157.04 28.945 157.18 29 157.321 29C157.462 29 157.603 28.945 157.71 28.8368L164.083 22.4632C164.303 22.2449 164.303 21.8965 164.089 21.6818Z" fill="#018BFB"/>
<defs>
<clipPath id="clip0_641_792">
<rect y="26" width="318" height="167" rx="10" fill="white"/>
</clipPath>
</defs>
</svg>
