<svg width="17" height="17" viewBox="0 0 17 17" fill="none" xmlns="http://www.w3.org/2000/svg">
<path d="M6.03883 8.08203L4.99905 7.07314L8.02643 3.95235L11.1465 6.97973L10.1369 8.01952L8.79268 6.71596L8.875 12.1759L7.42615 12.1978L7.34384 6.73781L6.03883 8.08203Z" fill="#00BFFF"/>
<path fill-rule="evenodd" clip-rule="evenodd" d="M3.13797 16.1339C2.36946 16.1455 1.62781 15.8513 1.0762 15.3161C0.524583 14.7808 0.20818 14.0484 0.196594 13.2799L0.0436933 3.13796C0.032107 2.36945 0.326287 1.62781 0.861517 1.07619C1.39675 0.524576 2.12918 0.208173 2.8977 0.196586L13.0396 0.0436859C13.8081 0.0320997 14.5498 0.32628 15.1014 0.86151C15.653 1.39674 15.9694 2.12918 15.981 2.89769L16.1339 13.0396C16.1455 13.8081 15.8513 14.5498 15.3161 15.1014C14.7808 15.653 14.0484 15.9694 13.2799 15.981L3.13797 16.1339ZM1.64544 13.258L1.49254 3.11612C1.48675 2.73186 1.63384 2.36104 1.90145 2.08524C2.16907 1.80943 2.53528 1.65123 2.91954 1.64543L13.0615 1.49253C13.4457 1.48674 13.8165 1.63383 14.0924 1.90144C14.3682 2.16906 14.5264 2.53528 14.5322 2.91954L14.6851 13.0615C14.6909 13.4457 14.5438 13.8165 14.2761 14.0923C14.0085 14.3682 13.6423 14.5264 13.2581 14.5321L3.11613 14.685C2.73187 14.6908 2.36105 14.5438 2.08524 14.2761C1.80943 14.0085 1.65123 13.6423 1.64544 13.258Z" fill="#00BFFF"/>
</svg>
