<svg width="139" height="139" viewBox="0 0 139 139" fill="none" xmlns="http://www.w3.org/2000/svg">
<path d="M138.82 92.3771C138.868 92.4736 138.892 93.1734 138.892 94.4766C138.892 95.7797 138.916 97.4448 138.964 99.4719C139.012 101.499 139.012 103.84 138.964 106.494C138.916 109.149 138.916 111.827 138.964 114.53C139.012 117.233 138.988 119.984 138.892 122.783C138.795 125.583 138.795 128.044 138.892 130.168C138.988 132.291 138.964 134.198 138.82 135.887C138.675 137.576 138.675 138.614 138.82 139H0.216567V130.24C0.216567 127.972 0.192504 125.486 0.144378 122.783C0.0962521 120.081 0.0962521 117.354 0.144378 114.603C0.192504 111.852 0.168441 109.149 0.072189 106.494C-0.024063 103.84 -0.024063 101.523 0.072189 99.5443C0.168441 97.5654 0.168441 95.8762 0.072189 94.4766C-0.024063 93.0769 0.024063 92.3771 0.216567 92.3771L27.865 9.26667H55.6577V18.5333H34.5064L9.8899 92.6667H40.0649L49.3051 111.2H89.731L98.9712 92.6667H129.146L104.53 18.5333H83.3783V9.26667H111.171L138.82 92.3771ZM129.579 101.933H104.746L95.5061 120.467H43.53L34.2898 101.933H9.45676V129.733H129.579V101.933ZM64.8979 67.5453V0H74.1381V67.5453L95.3617 46.3333L101.859 52.849L69.518 85.2823L37.1774 52.849L43.6744 46.3333L64.8979 67.5453Z" fill="#00BFFF"/>
</svg>
