<svg width="350" height="301" viewBox="0 0 350 301" fill="none" xmlns="http://www.w3.org/2000/svg">
<rect width="350" height="301" rx="40" fill="#F6F6F6"/>
<rect x="0.5" y="0.5" width="349" height="300" rx="39.5" stroke="#4D91E0" stroke-opacity="0.29"/>
<circle cx="179" cy="122" r="70" fill="url(#paint0_linear_255_2085)"/>
<circle cx="102" cy="42" r="10" fill="#00BFFF"/>
<circle cx="188.5" cy="36.5" r="2.5" fill="#00BFFF"/>
<circle cx="92" cy="165" r="5" fill="#00BFFF"/>
<circle cx="260.5" cy="59.5" r="7.5" fill="#00BFFF"/>
<circle cx="247.5" cy="192.5" r="2.5" fill="#00BFFF"/>
<circle cx="252.5" cy="142.5" r="2.5" fill="#00BFFF"/>
<circle cx="204" cy="203" r="1" fill="#00BFFF"/>
<circle cx="144.5" cy="208.5" r="3.5" fill="#00BFFF"/>
<circle cx="83" cy="107" r="1" fill="url(#paint1_linear_255_2085)"/>
<path d="M192.02 91.999C202.19 91.999 209 99.139 209 109.759V134.272C209 144.859 202.19 151.999 192.02 151.999H166.01C155.84 151.999 149 144.859 149 134.272V109.759C149 99.139 155.84 91.999 166.01 91.999H192.02ZM191.54 112.999C190.52 111.979 188.84 111.979 187.82 112.999L175.43 125.389L170.18 120.139C169.16 119.119 167.48 119.119 166.46 120.139C165.44 121.159 165.44 122.809 166.46 123.859L173.6 130.969C174.11 131.479 174.77 131.719 175.43 131.719C176.12 131.719 176.78 131.479 177.29 130.969L191.54 116.719C192.56 115.699 192.56 114.049 191.54 112.999Z" fill="white"/>
<path d="M123.7 260.24C122.996 260.24 122.292 260.184 121.588 260.072C120.884 259.976 120.22 259.824 119.596 259.616C118.972 259.392 118.412 259.12 117.916 258.8C117.628 258.608 117.428 258.376 117.316 258.104C117.204 257.832 117.164 257.568 117.196 257.312C117.244 257.04 117.348 256.808 117.508 256.616C117.684 256.408 117.9 256.28 118.156 256.232C118.412 256.184 118.692 256.256 118.996 256.448C119.7 256.864 120.444 257.168 121.228 257.36C122.012 257.552 122.836 257.648 123.7 257.648C124.964 257.648 125.884 257.44 126.46 257.024C127.036 256.592 127.324 256.04 127.324 255.368C127.324 254.808 127.116 254.368 126.7 254.048C126.3 253.728 125.604 253.464 124.612 253.256L121.972 252.704C120.452 252.384 119.316 251.848 118.564 251.096C117.828 250.328 117.46 249.32 117.46 248.072C117.46 247.288 117.62 246.576 117.94 245.936C118.26 245.296 118.708 244.744 119.284 244.28C119.876 243.816 120.572 243.464 121.372 243.224C122.188 242.968 123.084 242.84 124.06 242.84C125.02 242.84 125.932 242.96 126.796 243.2C127.66 243.44 128.436 243.792 129.124 244.256C129.38 244.432 129.548 244.648 129.628 244.904C129.724 245.16 129.748 245.416 129.7 245.672C129.652 245.912 129.54 246.12 129.364 246.296C129.188 246.472 128.964 246.576 128.692 246.608C128.436 246.64 128.14 246.56 127.804 246.368C127.212 246.032 126.612 245.792 126.004 245.648C125.396 245.504 124.74 245.432 124.036 245.432C123.3 245.432 122.668 245.536 122.14 245.744C121.612 245.952 121.204 246.248 120.916 246.632C120.644 247 120.508 247.44 120.508 247.952C120.508 248.528 120.7 248.992 121.084 249.344C121.468 249.68 122.124 249.944 123.052 250.136L125.668 250.688C127.252 251.024 128.428 251.552 129.196 252.272C129.98 252.992 130.372 253.952 130.372 255.152C130.372 255.92 130.212 256.616 129.892 257.24C129.588 257.864 129.14 258.4 128.548 258.848C127.972 259.296 127.276 259.64 126.46 259.88C125.644 260.12 124.724 260.24 123.7 260.24ZM136.968 260.24C135.992 260.24 135.184 260.064 134.544 259.712C133.904 259.344 133.424 258.8 133.104 258.08C132.8 257.36 132.648 256.464 132.648 255.392V249.584C132.648 249.072 132.776 248.696 133.032 248.456C133.288 248.2 133.656 248.072 134.136 248.072C134.616 248.072 134.984 248.2 135.24 248.456C135.512 248.696 135.648 249.072 135.648 249.584V255.44C135.648 256.272 135.816 256.888 136.152 257.288C136.488 257.688 137.024 257.888 137.76 257.888C138.56 257.888 139.216 257.616 139.728 257.072C140.24 256.512 140.496 255.776 140.496 254.864V249.584C140.496 249.072 140.624 248.696 140.88 248.456C141.136 248.2 141.504 248.072 141.984 248.072C142.464 248.072 142.832 248.2 143.088 248.456C143.36 248.696 143.496 249.072 143.496 249.584V258.656C143.496 259.68 143.008 260.192 142.032 260.192C141.568 260.192 141.208 260.064 140.952 259.808C140.696 259.536 140.568 259.152 140.568 258.656V256.832L140.904 257.552C140.568 258.416 140.056 259.08 139.368 259.544C138.696 260.008 137.896 260.24 136.968 260.24ZM152.043 260.24C150.811 260.24 149.739 259.992 148.827 259.496C147.915 258.984 147.211 258.264 146.715 257.336C146.219 256.408 145.971 255.32 145.971 254.072C145.971 253.128 146.107 252.288 146.379 251.552C146.667 250.8 147.075 250.168 147.603 249.656C148.131 249.128 148.771 248.728 149.523 248.456C150.275 248.168 151.115 248.024 152.043 248.024C152.571 248.024 153.139 248.096 153.747 248.24C154.371 248.384 154.955 248.624 155.499 248.96C155.755 249.12 155.923 249.312 156.003 249.536C156.083 249.76 156.099 249.992 156.051 250.232C156.003 250.456 155.899 250.656 155.739 250.832C155.595 250.992 155.411 251.096 155.187 251.144C154.963 251.176 154.715 251.12 154.443 250.976C154.091 250.768 153.731 250.616 153.363 250.52C152.995 250.408 152.643 250.352 152.307 250.352C151.779 250.352 151.315 250.44 150.915 250.616C150.515 250.776 150.171 251.016 149.883 251.336C149.611 251.64 149.403 252.024 149.259 252.488C149.115 252.952 149.043 253.488 149.043 254.096C149.043 255.28 149.323 256.216 149.883 256.904C150.459 257.576 151.267 257.912 152.307 257.912C152.643 257.912 152.987 257.864 153.339 257.768C153.707 257.672 154.075 257.52 154.443 257.312C154.715 257.168 154.955 257.12 155.163 257.168C155.387 257.216 155.571 257.328 155.715 257.504C155.859 257.664 155.947 257.864 155.979 258.104C156.011 258.328 155.979 258.552 155.883 258.776C155.803 259 155.643 259.184 155.403 259.328C154.875 259.648 154.315 259.88 153.723 260.024C153.131 260.168 152.571 260.24 152.043 260.24ZM163.129 260.24C161.897 260.24 160.825 259.992 159.913 259.496C159.001 258.984 158.297 258.264 157.801 257.336C157.305 256.408 157.057 255.32 157.057 254.072C157.057 253.128 157.193 252.288 157.465 251.552C157.753 250.8 158.161 250.168 158.689 249.656C159.217 249.128 159.857 248.728 160.609 248.456C161.361 248.168 162.201 248.024 163.129 248.024C163.657 248.024 164.225 248.096 164.833 248.24C165.457 248.384 166.041 248.624 166.585 248.96C166.841 249.12 167.009 249.312 167.089 249.536C167.169 249.76 167.185 249.992 167.137 250.232C167.089 250.456 166.985 250.656 166.825 250.832C166.681 250.992 166.497 251.096 166.273 251.144C166.049 251.176 165.801 251.12 165.529 250.976C165.177 250.768 164.817 250.616 164.449 250.52C164.081 250.408 163.729 250.352 163.393 250.352C162.865 250.352 162.401 250.44 162.001 250.616C161.601 250.776 161.257 251.016 160.969 251.336C160.697 251.64 160.489 252.024 160.345 252.488C160.201 252.952 160.129 253.488 160.129 254.096C160.129 255.28 160.409 256.216 160.969 256.904C161.545 257.576 162.353 257.912 163.393 257.912C163.729 257.912 164.073 257.864 164.425 257.768C164.793 257.672 165.161 257.52 165.529 257.312C165.801 257.168 166.041 257.12 166.249 257.168C166.473 257.216 166.657 257.328 166.801 257.504C166.945 257.664 167.033 257.864 167.065 258.104C167.097 258.328 167.065 258.552 166.969 258.776C166.889 259 166.729 259.184 166.489 259.328C165.961 259.648 165.401 259.88 164.809 260.024C164.217 260.168 163.657 260.24 163.129 260.24ZM174.574 260.24C173.246 260.24 172.102 259.992 171.142 259.496C170.182 259 169.438 258.296 168.91 257.384C168.398 256.472 168.142 255.392 168.142 254.144C168.142 252.928 168.39 251.864 168.886 250.952C169.398 250.04 170.094 249.328 170.974 248.816C171.87 248.288 172.886 248.024 174.022 248.024C174.854 248.024 175.598 248.16 176.254 248.432C176.926 248.704 177.494 249.096 177.958 249.608C178.438 250.12 178.798 250.744 179.038 251.48C179.294 252.2 179.422 253.016 179.422 253.928C179.422 254.216 179.318 254.44 179.11 254.6C178.918 254.744 178.638 254.816 178.27 254.816H170.566V253.088H177.31L176.926 253.448C176.926 252.712 176.814 252.096 176.59 251.6C176.382 251.104 176.07 250.728 175.654 250.472C175.254 250.2 174.75 250.064 174.142 250.064C173.47 250.064 172.894 250.224 172.414 250.544C171.95 250.848 171.59 251.288 171.334 251.864C171.094 252.424 170.974 253.096 170.974 253.88V254.048C170.974 255.36 171.278 256.344 171.886 257C172.51 257.64 173.422 257.96 174.622 257.96C175.038 257.96 175.502 257.912 176.014 257.816C176.542 257.704 177.038 257.52 177.502 257.264C177.838 257.072 178.134 256.992 178.39 257.024C178.646 257.04 178.846 257.128 178.99 257.288C179.15 257.448 179.246 257.648 179.278 257.888C179.31 258.112 179.262 258.344 179.134 258.584C179.022 258.824 178.822 259.032 178.534 259.208C177.974 259.56 177.326 259.824 176.59 260C175.87 260.16 175.198 260.24 174.574 260.24ZM186.094 260.24C185.406 260.24 184.678 260.168 183.91 260.024C183.142 259.88 182.454 259.632 181.846 259.28C181.59 259.12 181.406 258.936 181.294 258.728C181.198 258.504 181.158 258.288 181.174 258.08C181.206 257.856 181.286 257.664 181.414 257.504C181.558 257.344 181.734 257.24 181.942 257.192C182.166 257.144 182.406 257.184 182.662 257.312C183.302 257.616 183.902 257.832 184.462 257.96C185.022 258.072 185.574 258.128 186.118 258.128C186.886 258.128 187.454 258 187.822 257.744C188.206 257.472 188.398 257.12 188.398 256.688C188.398 256.32 188.27 256.04 188.014 255.848C187.774 255.64 187.406 255.488 186.91 255.392L184.51 254.936C183.518 254.744 182.758 254.384 182.23 253.856C181.718 253.312 181.462 252.616 181.462 251.768C181.462 251 181.67 250.336 182.086 249.776C182.518 249.216 183.11 248.784 183.862 248.48C184.614 248.176 185.478 248.024 186.454 248.024C187.158 248.024 187.814 248.104 188.422 248.264C189.046 248.408 189.646 248.64 190.222 248.96C190.462 249.088 190.622 249.256 190.702 249.464C190.798 249.672 190.822 249.888 190.774 250.112C190.726 250.32 190.63 250.512 190.486 250.688C190.342 250.848 190.158 250.952 189.934 251C189.726 251.032 189.486 250.984 189.214 250.856C188.718 250.6 188.238 250.416 187.774 250.304C187.326 250.192 186.894 250.136 186.478 250.136C185.694 250.136 185.11 250.272 184.726 250.544C184.358 250.816 184.174 251.176 184.174 251.624C184.174 251.96 184.286 252.24 184.51 252.464C184.734 252.688 185.078 252.84 185.542 252.92L187.942 253.376C188.982 253.568 189.766 253.92 190.294 254.432C190.838 254.944 191.11 255.632 191.11 256.496C191.11 257.664 190.654 258.584 189.742 259.256C188.83 259.912 187.614 260.24 186.094 260.24ZM197.813 260.24C197.125 260.24 196.397 260.168 195.629 260.024C194.861 259.88 194.173 259.632 193.565 259.28C193.309 259.12 193.125 258.936 193.013 258.728C192.917 258.504 192.877 258.288 192.893 258.08C192.925 257.856 193.005 257.664 193.133 257.504C193.277 257.344 193.453 257.24 193.661 257.192C193.885 257.144 194.125 257.184 194.381 257.312C195.021 257.616 195.621 257.832 196.181 257.96C196.741 258.072 197.293 258.128 197.837 258.128C198.605 258.128 199.173 258 199.541 257.744C199.925 257.472 200.117 257.12 200.117 256.688C200.117 256.32 199.989 256.04 199.733 255.848C199.493 255.64 199.125 255.488 198.629 255.392L196.229 254.936C195.237 254.744 194.477 254.384 193.949 253.856C193.437 253.312 193.181 252.616 193.181 251.768C193.181 251 193.389 250.336 193.805 249.776C194.237 249.216 194.829 248.784 195.581 248.48C196.333 248.176 197.197 248.024 198.173 248.024C198.877 248.024 199.533 248.104 200.141 248.264C200.765 248.408 201.365 248.64 201.941 248.96C202.181 249.088 202.341 249.256 202.421 249.464C202.517 249.672 202.541 249.888 202.493 250.112C202.445 250.32 202.349 250.512 202.205 250.688C202.061 250.848 201.877 250.952 201.653 251C201.445 251.032 201.205 250.984 200.933 250.856C200.437 250.6 199.957 250.416 199.493 250.304C199.045 250.192 198.613 250.136 198.197 250.136C197.413 250.136 196.829 250.272 196.445 250.544C196.077 250.816 195.893 251.176 195.893 251.624C195.893 251.96 196.005 252.24 196.229 252.464C196.453 252.688 196.797 252.84 197.261 252.92L199.661 253.376C200.701 253.568 201.485 253.92 202.013 254.432C202.557 254.944 202.829 255.632 202.829 256.496C202.829 257.664 202.373 258.584 201.461 259.256C200.549 259.912 199.333 260.24 197.813 260.24ZM207.54 260.192C207.06 260.192 206.684 260.064 206.412 259.808C206.156 259.536 206.028 259.152 206.028 258.656V250.52H204.924C204.54 250.52 204.244 250.424 204.036 250.232C203.828 250.024 203.724 249.744 203.724 249.392C203.724 249.024 203.828 248.744 204.036 248.552C204.244 248.36 204.54 248.264 204.924 248.264H206.892L206.028 249.056V248.24C206.028 246.592 206.444 245.36 207.276 244.544C208.108 243.712 209.308 243.224 210.876 243.08L211.692 243.008C212.012 242.976 212.268 243.032 212.46 243.176C212.652 243.304 212.78 243.48 212.844 243.704C212.908 243.912 212.916 244.128 212.868 244.352C212.82 244.576 212.716 244.776 212.556 244.952C212.412 245.112 212.22 245.2 211.98 245.216L211.644 245.24C210.732 245.304 210.068 245.536 209.652 245.936C209.236 246.336 209.028 246.944 209.028 247.76V248.648L208.644 248.264H211.068C211.452 248.264 211.748 248.36 211.956 248.552C212.164 248.744 212.268 249.024 212.268 249.392C212.268 249.744 212.164 250.024 211.956 250.232C211.748 250.424 211.452 250.52 211.068 250.52H209.028V258.656C209.028 259.68 208.532 260.192 207.54 260.192ZM218.226 260.24C217.25 260.24 216.442 260.064 215.802 259.712C215.162 259.344 214.682 258.8 214.362 258.08C214.058 257.36 213.906 256.464 213.906 255.392V249.584C213.906 249.072 214.034 248.696 214.29 248.456C214.546 248.2 214.914 248.072 215.394 248.072C215.874 248.072 216.242 248.2 216.498 248.456C216.77 248.696 216.906 249.072 216.906 249.584V255.44C216.906 256.272 217.074 256.888 217.41 257.288C217.746 257.688 218.282 257.888 219.018 257.888C219.818 257.888 220.474 257.616 220.986 257.072C221.498 256.512 221.754 255.776 221.754 254.864V249.584C221.754 249.072 221.882 248.696 222.138 248.456C222.394 248.2 222.762 248.072 223.242 248.072C223.722 248.072 224.09 248.2 224.346 248.456C224.618 248.696 224.754 249.072 224.754 249.584V258.656C224.754 259.68 224.266 260.192 223.29 260.192C222.826 260.192 222.466 260.064 222.21 259.808C221.954 259.536 221.826 259.152 221.826 258.656V256.832L222.162 257.552C221.826 258.416 221.314 259.08 220.626 259.544C219.954 260.008 219.154 260.24 218.226 260.24ZM231.884 260.24C230.556 260.24 229.556 259.864 228.884 259.112C228.212 258.344 227.876 257.224 227.876 255.752V244.4C227.876 243.904 228.004 243.528 228.26 243.272C228.516 243.016 228.884 242.888 229.364 242.888C229.844 242.888 230.212 243.016 230.468 243.272C230.74 243.528 230.876 243.904 230.876 244.4V255.608C230.876 256.344 231.028 256.888 231.332 257.24C231.652 257.592 232.1 257.768 232.676 257.768C232.804 257.768 232.924 257.768 233.036 257.768C233.148 257.752 233.26 257.736 233.372 257.72C233.596 257.688 233.748 257.752 233.828 257.912C233.908 258.056 233.948 258.36 233.948 258.824C233.948 259.224 233.868 259.536 233.708 259.76C233.548 259.984 233.284 260.12 232.916 260.168C232.756 260.184 232.588 260.2 232.412 260.216C232.236 260.232 232.06 260.24 231.884 260.24Z" fill="url(#paint2_linear_255_2085)"/>
<defs>
<linearGradient id="paint0_linear_255_2085" x1="179" y1="52" x2="179.201" y2="202.54" gradientUnits="userSpaceOnUse">
<stop stop-color="#00BFFF"/>
<stop offset="1" stop-color="#8BD5EE" stop-opacity="0.65"/>
</linearGradient>
<linearGradient id="paint1_linear_255_2085" x1="83" y1="106" x2="83.0029" y2="108.151" gradientUnits="userSpaceOnUse">
<stop stop-color="#008000" stop-opacity="0.77"/>
<stop offset="1" stop-color="#FFFF00" stop-opacity="0.8"/>
</linearGradient>
<linearGradient id="paint2_linear_255_2085" x1="175" y1="236" x2="175.005" y2="271.484" gradientUnits="userSpaceOnUse">
<stop stop-color="#90D3EB"/>
<stop offset="1" stop-color="#69BFDE"/>
</linearGradient>
</defs>
</svg>
