<svg width="106" height="32" viewBox="0 0 106 32" fill="none" xmlns="http://www.w3.org/2000/svg">
<rect x="0.5" y="0.5" width="105" height="31" rx="15.5" fill="white"/>
<rect x="0.5" y="0.5" width="105" height="31" rx="15.5" stroke="#C1C1C1"/>
<path d="M15.648 20.084C15.464 20.084 15.324 20.036 15.228 19.94C15.132 19.836 15.084 19.692 15.084 19.508V12.488H12.456C12.304 12.488 12.184 12.448 12.096 12.368C12.008 12.28 11.964 12.16 11.964 12.008C11.964 11.856 12.008 11.74 12.096 11.66C12.184 11.58 12.304 11.54 12.456 11.54H18.828C18.988 11.54 19.108 11.58 19.188 11.66C19.276 11.74 19.32 11.856 19.32 12.008C19.32 12.16 19.276 12.28 19.188 12.368C19.108 12.448 18.988 12.488 18.828 12.488H16.2V19.508C16.2 19.692 16.152 19.836 16.056 19.94C15.968 20.036 15.832 20.084 15.648 20.084ZM21.0118 20.084C20.8438 20.084 20.7118 20.036 20.6158 19.94C20.5198 19.844 20.4718 19.704 20.4718 19.52V12.008C20.4718 11.824 20.5198 11.688 20.6158 11.6C20.7118 11.504 20.8438 11.456 21.0118 11.456C21.1878 11.456 21.3238 11.504 21.4198 11.6C21.5158 11.688 21.5638 11.824 21.5638 12.008V15.428H21.4078C21.5758 14.972 21.8478 14.628 22.2238 14.396C22.6078 14.164 23.0438 14.048 23.5318 14.048C24.0038 14.048 24.3918 14.136 24.6958 14.312C24.9998 14.48 25.2278 14.736 25.3798 15.08C25.5318 15.424 25.6078 15.856 25.6078 16.376V19.52C25.6078 19.704 25.5598 19.844 25.4638 19.94C25.3758 20.036 25.2438 20.084 25.0678 20.084C24.8918 20.084 24.7558 20.036 24.6598 19.94C24.5638 19.844 24.5158 19.704 24.5158 19.52V16.436C24.5158 15.916 24.4158 15.536 24.2158 15.296C24.0158 15.056 23.6958 14.936 23.2558 14.936C22.7438 14.936 22.3318 15.096 22.0198 15.416C21.7158 15.728 21.5638 16.152 21.5638 16.688V19.52C21.5638 19.896 21.3798 20.084 21.0118 20.084ZM27.799 20.06C27.631 20.06 27.499 20.008 27.403 19.904C27.307 19.8 27.259 19.656 27.259 19.472V14.684C27.259 14.492 27.307 14.348 27.403 14.252C27.499 14.148 27.631 14.096 27.799 14.096C27.975 14.096 28.111 14.148 28.207 14.252C28.303 14.348 28.351 14.492 28.351 14.684V19.472C28.351 19.656 28.303 19.8 28.207 19.904C28.119 20.008 27.983 20.06 27.799 20.06ZM27.799 12.8C27.583 12.8 27.411 12.744 27.283 12.632C27.163 12.512 27.103 12.356 27.103 12.164C27.103 11.956 27.163 11.8 27.283 11.696C27.411 11.584 27.583 11.528 27.799 11.528C28.031 11.528 28.203 11.584 28.315 11.696C28.435 11.8 28.495 11.956 28.495 12.164C28.495 12.356 28.435 12.512 28.315 12.632C28.203 12.744 28.031 12.8 27.799 12.8ZM32.0426 20.108C31.6826 20.108 31.3186 20.068 30.9506 19.988C30.5906 19.9 30.2506 19.752 29.9306 19.544C29.8426 19.488 29.7786 19.42 29.7386 19.34C29.7066 19.252 29.6946 19.168 29.7026 19.088C29.7186 19 29.7546 18.924 29.8106 18.86C29.8666 18.796 29.9346 18.76 30.0146 18.752C30.1026 18.736 30.1946 18.756 30.2906 18.812C30.6026 18.988 30.9026 19.112 31.1906 19.184C31.4866 19.256 31.7786 19.292 32.0666 19.292C32.5066 19.292 32.8386 19.212 33.0626 19.052C33.2866 18.892 33.3986 18.68 33.3986 18.416C33.3986 18.192 33.3226 18.02 33.1706 17.9C33.0266 17.772 32.7986 17.676 32.4866 17.612L31.3706 17.384C30.8746 17.272 30.4986 17.088 30.2426 16.832C29.9946 16.568 29.8706 16.232 29.8706 15.824C29.8706 15.464 29.9666 15.152 30.1586 14.888C30.3586 14.616 30.6346 14.408 30.9866 14.264C31.3386 14.12 31.7426 14.048 32.1986 14.048C32.5506 14.048 32.8826 14.096 33.1946 14.192C33.5146 14.28 33.8026 14.416 34.0586 14.6C34.1546 14.656 34.2146 14.728 34.2386 14.816C34.2706 14.896 34.2746 14.98 34.2506 15.068C34.2346 15.148 34.1986 15.216 34.1426 15.272C34.0866 15.328 34.0146 15.364 33.9266 15.38C33.8386 15.388 33.7426 15.364 33.6386 15.308C33.4066 15.148 33.1666 15.036 32.9186 14.972C32.6786 14.9 32.4386 14.864 32.1986 14.864C31.7666 14.864 31.4386 14.948 31.2146 15.116C30.9986 15.284 30.8906 15.504 30.8906 15.776C30.8906 15.984 30.9546 16.156 31.0826 16.292C31.2186 16.428 31.4306 16.528 31.7186 16.592L32.8346 16.82C33.3546 16.932 33.7466 17.112 34.0106 17.36C34.2746 17.6 34.4066 17.928 34.4066 18.344C34.4066 18.888 34.1906 19.32 33.7586 19.64C33.3346 19.952 32.7626 20.108 32.0426 20.108ZM41.7123 20.084C41.5523 20.084 41.4243 20.044 41.3283 19.964C41.2323 19.884 41.1523 19.756 41.0883 19.58L38.4723 12.116C38.4003 11.932 38.4083 11.776 38.4963 11.648C38.5923 11.52 38.7483 11.456 38.9643 11.456C39.1163 11.456 39.2363 11.492 39.3243 11.564C39.4123 11.636 39.4843 11.756 39.5403 11.924L41.9523 19.004H41.5203L43.9923 11.948C44.0563 11.78 44.1323 11.656 44.2203 11.576C44.3083 11.496 44.4243 11.456 44.5683 11.456C44.7203 11.456 44.8363 11.496 44.9163 11.576C45.0043 11.656 45.0763 11.784 45.1323 11.96L47.5563 19.004H47.1723L49.6083 11.924C49.6643 11.764 49.7363 11.648 49.8243 11.576C49.9123 11.496 50.0363 11.456 50.1963 11.456C50.3803 11.456 50.5163 11.52 50.6043 11.648C50.6923 11.776 50.7043 11.932 50.6403 12.116L48.0003 19.592C47.9443 19.76 47.8683 19.884 47.7723 19.964C47.6763 20.044 47.5483 20.084 47.3883 20.084C47.2203 20.084 47.0883 20.044 46.9923 19.964C46.8963 19.884 46.8163 19.756 46.7523 19.58L44.4123 12.86H44.6763L42.3243 19.592C42.2603 19.76 42.1803 19.884 42.0843 19.964C41.9963 20.044 41.8723 20.084 41.7123 20.084ZM53.9437 20.108C53.3117 20.108 52.7677 19.988 52.3117 19.748C51.8637 19.5 51.5157 19.152 51.2677 18.704C51.0197 18.248 50.8957 17.712 50.8957 17.096C50.8957 16.488 51.0157 15.956 51.2557 15.5C51.5037 15.044 51.8397 14.688 52.2637 14.432C52.6957 14.176 53.1877 14.048 53.7397 14.048C54.1317 14.048 54.4837 14.116 54.7957 14.252C55.1157 14.38 55.3877 14.568 55.6117 14.816C55.8357 15.064 56.0037 15.368 56.1157 15.728C56.2357 16.08 56.2957 16.48 56.2957 16.928C56.2957 17.056 56.2557 17.156 56.1757 17.228C56.1037 17.292 55.9957 17.324 55.8517 17.324H51.7477V16.628H55.5757L55.3717 16.796C55.3717 16.38 55.3077 16.028 55.1797 15.74C55.0597 15.444 54.8797 15.22 54.6397 15.068C54.4077 14.916 54.1157 14.84 53.7637 14.84C53.3797 14.84 53.0517 14.932 52.7797 15.116C52.5077 15.292 52.2997 15.544 52.1557 15.872C52.0117 16.192 51.9397 16.564 51.9397 16.988V17.06C51.9397 17.78 52.1117 18.324 52.4557 18.692C52.7997 19.06 53.2957 19.244 53.9437 19.244C54.1997 19.244 54.4597 19.212 54.7237 19.148C54.9957 19.084 55.2557 18.968 55.5037 18.8C55.6237 18.728 55.7317 18.696 55.8277 18.704C55.9317 18.704 56.0157 18.736 56.0797 18.8C56.1437 18.856 56.1837 18.928 56.1997 19.016C56.2157 19.096 56.2037 19.184 56.1637 19.28C56.1237 19.376 56.0477 19.46 55.9357 19.532C55.6717 19.716 55.3557 19.86 54.9877 19.964C54.6277 20.06 54.2797 20.108 53.9437 20.108ZM60.2738 20.108C59.6418 20.108 59.0978 19.988 58.6418 19.748C58.1938 19.5 57.8458 19.152 57.5978 18.704C57.3498 18.248 57.2258 17.712 57.2258 17.096C57.2258 16.488 57.3458 15.956 57.5858 15.5C57.8338 15.044 58.1698 14.688 58.5938 14.432C59.0258 14.176 59.5178 14.048 60.0698 14.048C60.4618 14.048 60.8138 14.116 61.1258 14.252C61.4458 14.38 61.7178 14.568 61.9418 14.816C62.1658 15.064 62.3338 15.368 62.4458 15.728C62.5658 16.08 62.6258 16.48 62.6258 16.928C62.6258 17.056 62.5858 17.156 62.5058 17.228C62.4338 17.292 62.3258 17.324 62.1818 17.324H58.0778V16.628H61.9058L61.7018 16.796C61.7018 16.38 61.6378 16.028 61.5098 15.74C61.3898 15.444 61.2098 15.22 60.9698 15.068C60.7378 14.916 60.4458 14.84 60.0938 14.84C59.7098 14.84 59.3818 14.932 59.1098 15.116C58.8378 15.292 58.6298 15.544 58.4858 15.872C58.3418 16.192 58.2698 16.564 58.2698 16.988V17.06C58.2698 17.78 58.4418 18.324 58.7858 18.692C59.1298 19.06 59.6258 19.244 60.2738 19.244C60.5298 19.244 60.7898 19.212 61.0538 19.148C61.3258 19.084 61.5858 18.968 61.8338 18.8C61.9538 18.728 62.0618 18.696 62.1578 18.704C62.2618 18.704 62.3458 18.736 62.4098 18.8C62.4738 18.856 62.5138 18.928 62.5298 19.016C62.5458 19.096 62.5338 19.184 62.4938 19.28C62.4538 19.376 62.3778 19.46 62.2658 19.532C62.0018 19.716 61.6858 19.86 61.3178 19.964C60.9578 20.06 60.6098 20.108 60.2738 20.108ZM64.444 20.084C64.276 20.084 64.144 20.036 64.048 19.94C63.952 19.844 63.904 19.704 63.904 19.52V12.008C63.904 11.824 63.952 11.688 64.048 11.6C64.144 11.504 64.276 11.456 64.444 11.456C64.62 11.456 64.756 11.504 64.852 11.6C64.948 11.688 64.996 11.824 64.996 12.008V16.736H65.02L67.372 14.444C67.492 14.324 67.6 14.232 67.696 14.168C67.792 14.104 67.916 14.072 68.068 14.072C68.22 14.072 68.336 14.112 68.416 14.192C68.496 14.264 68.536 14.36 68.536 14.48C68.536 14.592 68.48 14.704 68.368 14.816L65.872 17.24V16.7L68.596 19.328C68.708 19.44 68.76 19.556 68.752 19.676C68.752 19.796 68.708 19.896 68.62 19.976C68.54 20.048 68.432 20.084 68.296 20.084C68.136 20.084 68.004 20.052 67.9 19.988C67.804 19.924 67.692 19.824 67.564 19.688L65.02 17.288H64.996V19.52C64.996 19.896 64.812 20.084 64.444 20.084Z" fill="#1E1E1E"/>
<path d="M83.0575 19.8591C83.0092 19.8121 82.8025 19.6343 82.6325 19.4687C81.5633 18.4977 79.8133 15.9648 79.2792 14.6391C79.1933 14.4378 79.0117 13.9288 79 13.6568C79 13.3962 79.06 13.1478 79.1817 12.9108C79.3517 12.6153 79.6192 12.3782 79.935 12.2483C80.1542 12.1647 80.81 12.0348 80.8217 12.0348C81.5392 11.9049 82.705 11.8335 83.9933 11.8335C85.2208 11.8335 86.3392 11.9049 87.0675 12.0113C87.0792 12.0235 87.8942 12.1534 88.1733 12.2954C88.6833 12.556 89 13.065 89 13.6098V13.6568C88.9875 14.0116 88.6708 14.7577 88.6592 14.7577C88.1242 16.0119 86.46 18.4864 85.3542 19.4808C85.3542 19.4808 85.07 19.7609 84.8925 19.8827C84.6375 20.0727 84.3217 20.1668 84.0058 20.1668C83.6533 20.1668 83.325 20.0605 83.0575 19.8591Z" fill="#1E1E1E"/>
</svg>
