<svg width="77" height="77" viewBox="0 0 77 77" fill="none" xmlns="http://www.w3.org/2000/svg">
<circle cx="38.5" cy="38.5" r="38.5" fill="white"/>
<path d="M38.5 25.9L38.9032 25.0954C38.778 25.0327 38.64 25 38.5 25C38.36 25 38.222 25.0327 38.0968 25.0954L38.5 25.9ZM27.7 31.3L27.2968 30.4954C27.1475 30.5702 27.022 30.6851 26.9342 30.8272C26.8465 30.9693 26.8 31.133 26.8 31.3H27.7ZM49.3 31.3H50.2C50.2 31.133 50.1535 30.9693 50.0658 30.8272C49.978 30.6851 49.8525 30.5702 49.7032 30.4954L49.3 31.3ZM34.9 43.9V43H34V43.9H34.9ZM42.1 43.9H43V43H42.1V43.9ZM25 52H52V50.2H25V52ZM38.0968 25.0954L27.2968 30.4954L28.1032 32.1046L38.9032 26.7046L38.0968 25.0954ZM49.7032 30.4954L38.9032 25.0954L38.0968 26.7046L48.8968 32.1046L49.7032 30.4954ZM37.6 30.4V34.9H39.4V30.4H37.6ZM37.6 34.9V39.4H39.4V34.9H37.6ZM34 35.8H38.5V34H34V35.8ZM38.5 35.8H43V34H38.5V35.8ZM26.8 31.3V51.1H28.6V31.3H26.8ZM48.4 31.3V51.1H50.2V31.3H48.4ZM35.8 51.1V43.9H34V51.1H35.8ZM34.9 44.8H42.1V43H34.9V44.8ZM41.2 43.9V51.1H43V43.9H41.2Z" fill="#00BFFF"/>
</svg>
