<svg width="77" height="77" viewBox="0 0 77 77" fill="none" xmlns="http://www.w3.org/2000/svg">
<circle cx="38.5" cy="38.5" r="38.5" fill="white"/>
<path d="M53.5031 29.3821C53.3557 29.3082 53.1914 29.2745 53.0268 29.2844C52.8622 29.2943 52.7031 29.3474 52.5656 29.4384L43.6875 35.3821V30.2165C43.6878 30.0382 43.6372 29.8635 43.5417 29.7129C43.4463 29.5624 43.3098 29.4421 43.1484 29.3663C42.987 29.2906 42.8074 29.2624 42.6305 29.2851C42.4537 29.3078 42.287 29.3805 42.15 29.4946L34.7625 35.5977H31.5V26.804C31.5053 26.5873 31.4353 26.3754 31.302 26.2045C31.1687 26.0336 30.9802 25.9141 30.7687 25.8665L27.0187 25.0227C26.8804 24.9917 26.7368 24.9924 26.5988 25.0249C26.4607 25.0574 26.3319 25.1208 26.2219 25.2102C26.1093 25.3014 26.0194 25.4174 25.9592 25.5492C25.8991 25.6809 25.8702 25.8249 25.875 25.9696V35.5977H24.9375C24.6889 35.5977 24.4504 35.6965 24.2746 35.8723C24.0988 36.0481 24 36.2866 24 36.5352V51.5352C24 51.7839 24.0988 52.0223 24.2746 52.1981C24.4504 52.374 24.6889 52.4727 24.9375 52.4727H53.0625C53.3111 52.4727 53.5496 52.374 53.7254 52.1981C53.9012 52.0223 54 51.7839 54 51.5352V30.2165C54.0012 30.0453 53.9556 29.877 53.868 29.73C53.7804 29.5829 53.6542 29.4626 53.5031 29.3821ZM27.75 27.1602L29.625 27.5727V35.5977H27.75V27.1602ZM52.125 50.5977H25.875V37.4727H35.0906C35.3097 37.4732 35.5219 37.3969 35.6906 37.2571L41.8125 32.1946V37.1446C41.8122 37.3149 41.8584 37.4821 41.946 37.6282C42.0335 37.7742 42.1593 37.8937 42.3096 37.9737C42.46 38.0537 42.6293 38.0912 42.7994 38.0822C42.9695 38.0732 43.1339 38.0181 43.275 37.9227L52.125 31.979V50.5977Z" fill="#00BFFF"/>
<path d="M27.75 39.3384H35.25V41.2134H27.75V39.3384ZM27.75 43.0884H35.25V44.9634H27.75V43.0884ZM27.75 46.8384H35.25V48.7134H27.75V46.8384ZM39.9375 40.2759H41.8125V43.0884H39.9375V40.2759ZM39.9375 45.9009H41.8125V48.7134H39.9375V45.9009ZM43.6875 40.2759H45.5625V43.0884H43.6875V40.2759ZM43.6875 45.9009H45.5625V48.7134H43.6875V45.9009ZM47.4375 40.2759H49.3125V43.0884H47.4375V40.2759ZM47.4375 45.9009H49.3125V48.7134H47.4375V45.9009Z" fill="#00BFFF"/>
</svg>
