<svg width="77" height="78" viewBox="0 0 77 78" fill="none" xmlns="http://www.w3.org/2000/svg">
<circle cx="38.5" cy="39" r="38.5" fill="white"/>
<path d="M26.0476 24V26.4348H23V52H55V31.3043H42.8095V26.4348H39.7619V24H26.0476ZM27.5714 25.2174H38.2381V27.6522H41.2857V50.7826H34.4286V46.5217H31.381V50.7826H24.5238V27.6522H27.5714V25.2174ZM27.5714 28.8696V30.087H29.0952V28.8696H27.5714ZM30.619 28.8696V30.087H32.1429V28.8696H30.619ZM33.6667 28.8696V30.087H35.1905V28.8696H33.6667ZM36.7143 28.8696V30.087H38.2381V28.8696H36.7143ZM27.5714 31.913V34.3478H29.0952V31.913H27.5714ZM30.619 31.913V34.3478H32.1429V31.913H30.619ZM33.6667 31.913V34.3478H35.1905V31.913H33.6667ZM36.7143 31.913V34.3478H38.2381V31.913H36.7143ZM42.8095 32.5217H53.4762V50.7826H42.8095V32.5217ZM44.3333 33.7391V34.9565H45.8571V33.7391H44.3333ZM47.381 33.7391V34.9565H48.9048V33.7391H47.381ZM50.4286 33.7391V34.9565H51.9524V33.7391H50.4286ZM27.5714 35.5652V38H29.0952V35.5652H27.5714ZM30.619 35.5652V38H32.1429V35.5652H30.619ZM33.6667 35.5652V38H35.1905V35.5652H33.6667ZM36.7143 35.5652V38H38.2381V35.5652H36.7143ZM44.3333 36.1739V37.3913H45.8571V36.1739H44.3333ZM47.381 36.1739V37.3913H48.9048V36.1739H47.381ZM50.4286 36.1739V37.3913H51.9524V36.1739H50.4286ZM44.3333 38.6087V39.8261H45.8571V38.6087H44.3333ZM47.381 38.6087V39.8261H48.9048V38.6087H47.381ZM50.4286 38.6087V39.8261H51.9524V38.6087H50.4286ZM27.5714 39.2174V41.6522H29.0952V39.2174H27.5714ZM30.619 39.2174V41.6522H32.1429V39.2174H30.619ZM33.6667 39.2174V41.6522H35.1905V39.2174H33.6667ZM36.7143 39.2174V41.6522H38.2381V39.2174H36.7143ZM44.3333 41.0435V42.2609H45.8571V41.0435H44.3333ZM47.381 41.0435V42.2609H48.9048V41.0435H47.381ZM50.4286 41.0435V42.2609H51.9524V41.0435H50.4286ZM27.5714 42.8696V45.3043H29.0952V42.8696H27.5714ZM30.619 42.8696V45.3043H32.1429V42.8696H30.619ZM33.6667 42.8696V45.3043H35.1905V42.8696H33.6667ZM36.7143 42.8696V45.3043H38.2381V42.8696H36.7143ZM44.3333 43.4783V44.6957H45.8571V43.4783H44.3333ZM47.381 43.4783V44.6957H48.9048V43.4783H47.381ZM50.4286 43.4783V44.6957H51.9524V43.4783H50.4286ZM44.3333 45.913V47.1304H45.8571V45.913H44.3333ZM47.381 45.913V47.1304H48.9048V45.913H47.381ZM50.4286 45.913V47.1304H51.9524V45.913H50.4286ZM27.5714 46.5217V49.5652H29.0952V46.5217H27.5714ZM36.7143 46.5217V49.5652H38.2381V46.5217H36.7143ZM44.3333 48.3478V49.5652H45.8571V48.3478H44.3333ZM47.381 48.3478V49.5652H48.9048V48.3478H47.381ZM50.4286 48.3478V49.5652H51.9524V48.3478H50.4286Z" fill="#00BFFF"/>
</svg>
