<svg width="77" height="77" viewBox="0 0 77 77" fill="none" xmlns="http://www.w3.org/2000/svg">
<circle cx="38.5" cy="38.5" r="38.5" fill="white"/>
<path d="M46.2649 36.1326V24H32.4343V30.6973H22V53.5866H32.4343V53.6026H55V36.1321H46.2649V36.1326ZM28.8785 52.6164V47.1124H26.5267V52.6164H22.9709V31.6677H32.4343V52.6164H28.8785ZM54.0293 52.6322H41.7351V42.8456H37.5292V52.6322H33.4046V30.6973V24.9709H45.2939V37.1034H54.0293V52.6322ZM34.6623 27.316H36.6847V31.8137H34.6623V27.316ZM38.5374 27.316H40.559V31.8137H38.5374V27.316ZM42.2649 27.316H44.2874V31.8137H42.2649V27.316ZM34.6623 34.223H36.6847V39.2061H34.6623V34.223ZM38.5374 34.223H40.559V39.2061H38.5374V34.223ZM42.2649 34.223H44.2874V39.2061H42.2649V34.223ZM47.8862 43.9056H45.8645V39.2866H47.8862V43.9056ZM47.8862 51.2978H45.8645V46.5577H47.8862V51.2978ZM52.132 43.9056H50.1104V39.2866H52.132V43.9056ZM52.132 51.2978H50.1104V46.5577H52.132V51.2978ZM24.5684 33.2812H26.5901V37.9H24.5684V33.2812ZM24.5684 40.5518H26.5901V45.2918H24.5684V40.5518ZM28.8144 33.2812H30.8361V37.9H28.8144V33.2812ZM28.8144 40.5518H30.8361V45.2918H28.8144V40.5518Z" fill="#00BFFF"/>
</svg>
