<svg width="77" height="77" viewBox="0 0 77 77" fill="none" xmlns="http://www.w3.org/2000/svg">
<path d="M77 38.5C77 59.763 59.763 77 38.5 77C17.237 77 0 59.763 0 38.5C0 17.237 17.237 0 38.5 0C59.763 0 77 17.237 77 38.5Z" fill="white"/>
<path d="M39.1732 24.2381C38.978 24.0838 38.7376 24 38.4901 24C38.2426 24 38.0022 24.0838 37.807 24.2381L22 36.7362L23.3673 38.4897L25.3 36.9616V50.7692C25.3012 51.3605 25.5333 51.9272 25.9457 52.3453C26.358 52.7634 26.9169 52.9988 27.5 53H49.5C50.0831 52.9988 50.642 52.7634 51.0544 52.3453C51.4667 51.9272 51.6988 51.3605 51.7 50.7692V36.9716L53.6327 38.4997L55 36.7463L39.1732 24.2381ZM40.7 50.7692H36.3V41.8459H40.7V50.7692ZM42.9 50.7692V41.8459C42.9 41.2543 42.6682 40.6869 42.2556 40.2685C41.8431 39.8501 41.2835 39.6151 40.7 39.6151H36.3C35.7165 39.6151 35.1569 39.8501 34.7444 40.2685C34.3318 40.6869 34.1 41.2543 34.1 41.8459V50.7692H27.5V35.2226L38.5 26.5336L49.5 35.2338V50.7692H42.9Z" fill="#00BFFF"/>
</svg>
