<svg width="19" height="18" viewBox="0 0 19 18" fill="none" xmlns="http://www.w3.org/2000/svg">
<path d="M9.5 0C4.32981 0 0 3.6576 0 8.28C0 10.4616 0.993115 12.4186 2.55769 13.8823C2.36746 14.3721 2.09743 14.8281 1.75823 15.2323C1.30866 15.7696 0.812016 16.2669 0.274038 16.7184C0.156031 16.8117 0.0703172 16.9387 0.0287258 17.0821C-0.0128656 17.2254 -0.0082842 17.3779 0.0418379 17.5185C0.0919599 17.6592 0.185152 17.781 0.308552 17.8673C0.431952 17.9535 0.579478 17.9999 0.730769 18C2.34942 18 3.51354 17.982 4.56731 17.7077C5.51 17.4614 6.32042 16.9459 7.14765 16.2223C7.90035 16.4002 8.67715 16.56 9.5 16.56C14.6702 16.56 19 12.9024 19 8.28C19 3.6576 14.6702 0 9.5 0ZM9.5 1.44C13.976 1.44 17.5385 4.5504 17.5385 8.28C17.5385 12.0096 13.976 15.12 9.5 15.12C8.70419 15.12 7.87769 14.9846 7.125 14.7823C7.00463 14.7525 6.87854 14.7534 6.75861 14.7849C6.63869 14.8164 6.52888 14.8774 6.43954 14.9623C5.61742 15.7392 5.01162 16.1014 4.20192 16.3123C3.82923 16.4095 3.11015 16.3865 2.603 16.4254C2.70531 16.3116 2.80104 16.2511 2.90042 16.1323C3.47481 15.4411 3.99877 14.7103 4.15662 13.8823C4.17836 13.758 4.16658 13.6303 4.12246 13.5119C4.07835 13.3935 4.00344 13.2886 3.90523 13.2077C2.37427 11.9621 1.46154 10.2161 1.46154 8.28C1.46154 4.5504 5.02404 1.44 9.5 1.44ZM8.10715 4.25232C7.97852 4.28076 7.8601 4.34296 7.76442 4.43232L6.66827 5.44536L7.65042 6.50232L8.51785 5.69232H10.2761L10.9615 6.4584V7.51608L9.08858 8.75304C8.98846 8.82021 8.90687 8.91085 8.85112 9.01679C8.79538 9.12274 8.76724 9.24068 8.76923 9.36V10.8H10.2308V9.76464L12.1037 8.52768C12.2039 8.46044 12.2856 8.36969 12.3414 8.26361C12.3971 8.15753 12.4252 8.03944 12.4231 7.92V6.18768C12.4221 6.01366 12.3572 5.84587 12.2404 5.71536L11.1442 4.5C11.076 4.42267 10.9918 4.36058 10.8973 4.31787C10.8028 4.27516 10.7001 4.25281 10.5962 4.25232H8.26646C8.21352 4.2466 8.1601 4.2466 8.10715 4.25232ZM8.76923 11.52V12.96H10.2308V11.52H8.76923Z" fill="#00BFFF"/>
</svg>
