<svg width="21" height="19" viewBox="0 0 21 19" fill="none" xmlns="http://www.w3.org/2000/svg">
<path d="M15.1875 0C13.2516 0 11.5566 0.878957 10.5 2.36467C9.44344 0.878957 7.74844 0 5.8125 0C4.27146 0.00183387 2.79404 0.648983 1.70436 1.79947C0.614681 2.94996 0.00173694 4.50983 0 6.13686C0 13.0656 9.73031 18.6739 10.1447 18.9055C10.2539 18.9675 10.376 19 10.5 19C10.624 19 10.7461 18.9675 10.8553 18.9055C11.2697 18.6739 21 13.0656 21 6.13686C20.9983 4.50983 20.3853 2.94996 19.2956 1.79947C18.206 0.648983 16.7285 0.00183387 15.1875 0ZM10.5 17.302C8.78813 16.2488 1.5 11.4512 1.5 6.13686C1.50149 4.92977 1.95632 3.77257 2.76475 2.91903C3.57317 2.06549 4.66921 1.58528 5.8125 1.58371C7.63594 1.58371 9.16687 2.60916 9.80625 4.25621C9.86276 4.40145 9.95888 4.52567 10.0824 4.61309C10.2059 4.70051 10.3513 4.74719 10.5 4.74719C10.6487 4.74719 10.7941 4.70051 10.9176 4.61309C11.0411 4.52567 11.1372 4.40145 11.1937 4.25621C11.8331 2.60619 13.3641 1.58371 15.1875 1.58371C16.3308 1.58528 17.4268 2.06549 18.2353 2.91903C19.0437 3.77257 19.4985 4.92977 19.5 6.13686C19.5 11.4433 12.21 16.2478 10.5 17.302Z" fill="#00BFFF"/>
</svg>
