<svg width="21" height="21" viewBox="0 0 21 21" fill="none" xmlns="http://www.w3.org/2000/svg">
<path d="M17.5 5.25003H15.5925C15.6887 4.97878 15.75 4.68128 15.75 4.37503C15.7509 3.8105 15.5696 3.26075 15.233 2.80755C14.8964 2.35435 14.4225 2.02192 13.8818 1.8597C13.3411 1.69749 12.7624 1.71416 12.2319 1.90723C11.7015 2.1003 11.2475 2.45946 10.9375 2.93128L10.5 3.51753L10.0625 2.92253C9.59 2.22253 8.79375 1.75003 7.875 1.75003C6.4225 1.75003 5.25 2.92253 5.25 4.37503C5.25 4.68128 5.31125 4.97878 5.4075 5.25003H3.5C2.52875 5.25003 1.75875 6.02878 1.75875 7.00003L1.75 16.625C1.75 17.5963 2.52875 18.375 3.5 18.375H17.5C18.4713 18.375 19.25 17.5963 19.25 16.625V7.00003C19.25 6.02878 18.4713 5.25003 17.5 5.25003ZM13.125 3.50003C13.6062 3.50003 14 3.89378 14 4.37503C14 4.85628 13.6062 5.25003 13.125 5.25003C12.6438 5.25003 12.25 4.85628 12.25 4.37503C12.25 3.89378 12.6438 3.50003 13.125 3.50003ZM7.875 3.50003C8.35625 3.50003 8.75 3.89378 8.75 4.37503C8.75 4.85628 8.35625 5.25003 7.875 5.25003C7.39375 5.25003 7 4.85628 7 4.37503C7 3.89378 7.39375 3.50003 7.875 3.50003ZM17.5 16.625H3.5V14.875H17.5V16.625ZM17.5 12.25H3.5V7.00003H7.945L6.125 9.47628L7.5425 10.5L9.625 7.66503L10.5 6.47503L11.375 7.66503L13.4575 10.5L14.875 9.47628L13.055 7.00003H17.5V12.25Z" fill="#00BFFF"/>
</svg>
