<svg width="19" height="20" viewBox="0 0 19 20" fill="none" xmlns="http://www.w3.org/2000/svg">
<path d="M9.125 14.25C8.30915 14.25 7.51163 14.0081 6.83327 13.5548C6.15492 13.1016 5.62621 12.4573 5.314 11.7036C5.00179 10.9498 4.9201 10.1204 5.07926 9.32025C5.23843 8.52008 5.63129 7.78508 6.20819 7.20819C6.78508 6.63129 7.52008 6.23843 8.32025 6.07926C9.12043 5.9201 9.94983 6.00179 10.7036 6.314C11.4573 6.62621 12.1016 7.15492 12.5548 7.83327C13.0081 8.51163 13.25 9.30915 13.25 10.125C13.2555 10.6682 13.1526 11.2071 12.9472 11.7101C12.7419 12.213 12.4383 12.67 12.0541 13.0541C11.67 13.4383 11.213 13.7419 10.7101 13.9472C10.2071 14.1526 9.66824 14.2555 9.125 14.25ZM9.125 7.375C8.76155 7.36653 8.40016 7.43188 8.06269 7.56708C7.72521 7.70229 7.41867 7.90454 7.16161 8.16161C6.90454 8.41867 6.70229 8.72521 6.56708 9.06269C6.43188 9.40016 6.36653 9.76155 6.375 10.125C6.36653 10.4885 6.43188 10.8498 6.56708 11.1873C6.70229 11.5248 6.90454 11.8313 7.16161 12.0884C7.41867 12.3455 7.72521 12.5477 8.06269 12.6829C8.40016 12.8181 8.76155 12.8835 9.125 12.875C9.48845 12.8835 9.84984 12.8181 10.1873 12.6829C10.5248 12.5477 10.8313 12.3455 11.0884 12.0884C11.3455 11.8313 11.5477 11.5248 11.6829 11.1873C11.8181 10.8498 11.8835 10.4885 11.875 10.125C11.8835 9.76155 11.8181 9.40016 11.6829 9.06269C11.5477 8.72521 11.3455 8.41867 11.0884 8.16161C10.8313 7.90454 10.5248 7.70229 10.1873 7.56708C9.84984 7.43188 9.48845 7.36653 9.125 7.375Z" fill="#00BFFF"/>
<path d="M16.9037 10.1203V9.06838L18.2237 7.91338C18.467 7.69891 18.6267 7.40533 18.6745 7.08453C18.7223 6.76372 18.6551 6.43634 18.4849 6.16025L16.8624 3.41025C16.7419 3.20143 16.5685 3.02799 16.3598 2.90732C16.151 2.78665 15.9142 2.723 15.6731 2.72275C15.5236 2.72161 15.375 2.74483 15.2331 2.7915L13.5624 3.35525C13.2744 3.16296 12.9735 2.99068 12.6618 2.83963L12.3112 1.10713C12.2483 0.790606 12.0761 0.50628 11.8247 0.303923C11.5734 0.101565 11.2588 -0.0059305 10.9362 0.000252609H7.71868C7.39603 -0.0059305 7.08149 0.101565 6.83011 0.303923C6.57874 0.50628 6.40655 0.790606 6.34368 1.10713L5.99305 2.83963C5.67952 2.99133 5.37636 3.16358 5.08555 3.35525L3.4493 2.764C3.30582 2.72662 3.15723 2.71269 3.0093 2.72275C2.76818 2.723 2.53136 2.78665 2.3226 2.90732C2.11384 3.02799 1.94049 3.20143 1.81993 3.41025L0.197427 6.16025C0.0369556 6.43593 -0.0226749 6.75883 0.0287484 7.07364C0.0801717 7.38845 0.239449 7.67559 0.479302 7.88588L1.77868 9.07525V10.1271L0.479302 11.2821C0.232674 11.4939 0.0690401 11.7862 0.0174386 12.1071C-0.034163 12.428 0.0296054 12.7569 0.197427 13.0353L1.81993 15.7853C1.94049 15.9941 2.11384 16.1675 2.3226 16.2882C2.53136 16.4089 2.76818 16.4725 3.0093 16.4728C3.15873 16.4739 3.30735 16.4507 3.4493 16.404L5.11993 15.8403C5.40797 16.0325 5.70889 16.2048 6.02055 16.3559L6.37118 18.0884C6.43405 18.4049 6.60624 18.6892 6.85761 18.8916C7.10899 19.0939 7.42353 19.2014 7.74618 19.1953H10.9912C11.3138 19.2014 11.6284 19.0939 11.8797 18.8916C12.1311 18.6892 12.3033 18.4049 12.3662 18.0884L12.7168 16.3559C13.0303 16.2042 13.3335 16.0319 13.6243 15.8403L15.2881 16.404C15.43 16.4507 15.5786 16.4739 15.7281 16.4728C15.9692 16.4725 16.206 16.4089 16.4148 16.2882C16.6235 16.1675 16.7969 15.9941 16.9174 15.7853L18.4849 13.0353C18.6454 12.7596 18.705 12.4367 18.6536 12.1219C18.6022 11.8071 18.4429 11.5199 18.2031 11.3096L16.9037 10.1203ZM15.6731 15.0978L13.3149 14.3003C12.7626 14.7673 12.1318 15.1328 11.4518 15.3796L10.9637 17.8478H7.71868L7.23055 15.4071C6.55594 15.1534 5.92853 14.7885 5.3743 14.3278L3.0093 15.0978L1.3868 12.3478L3.2568 10.6978C3.12968 9.98609 3.12968 9.25754 3.2568 8.54588L1.3868 6.84775L3.0093 4.09775L5.36743 4.89525C5.91978 4.42816 6.55059 4.06271 7.23055 3.81588L7.71868 1.34775H10.9637L11.4518 3.78838C12.1264 4.04214 12.7538 4.40696 13.3081 4.86775L15.6731 4.09775L17.2956 6.84775L15.4256 8.49775C15.5527 9.20941 15.5527 9.93797 15.4256 10.6496L17.2956 12.3478L15.6731 15.0978Z" fill="#00BFFF"/>
</svg>
