<svg width="19" height="19" viewBox="0 0 19 19" fill="none" xmlns="http://www.w3.org/2000/svg">
<path d="M11.267 7.28978C11.1613 6.99259 10.9664 6.73532 10.7088 6.55318C10.4513 6.37105 10.1438 6.27294 9.8284 6.2723H8.64745C8.31053 6.27054 7.98493 6.39377 7.73361 6.61816C7.48228 6.84255 7.32309 7.15216 7.28681 7.48712C7.25053 7.82208 7.33975 8.15859 7.5372 8.43159C7.73466 8.70458 8.02633 8.89466 8.35581 8.96507L10.154 9.35741C10.5217 9.43791 10.8467 9.65145 11.0665 9.95699C11.2864 10.2625 11.3855 10.6385 11.345 11.0127C11.3044 11.3869 11.127 11.733 10.8468 11.9843C10.5667 12.2357 10.2035 12.3747 9.82709 12.3745H8.81092C8.14656 12.3745 7.58159 11.9508 7.37234 11.3584M9.31966 6.2723V4.74609M9.31966 13.9007V12.3758M2.9585 18.002V14.7325H6.22801" stroke="#00BFFF" stroke-linecap="round" stroke-linejoin="round"/>
<path d="M17.8543 7.93976C18.2014 9.79058 17.9243 11.7043 17.0662 13.3805C16.2081 15.0568 14.8178 16.4007 13.1133 17.2013C11.4089 18.0019 9.48684 18.2139 7.64888 17.804C5.81093 17.3941 4.16111 16.3855 2.95836 14.9365M1.14574 11.068C0.798551 9.21721 1.07574 7.30349 1.93381 5.62724C2.79188 3.951 4.18224 2.60711 5.88669 1.80652C7.59113 1.00592 9.51317 0.793939 11.3511 1.20384C13.1891 1.61374 14.8389 2.62232 16.0416 4.07127" stroke="#00BFFF" stroke-linecap="round" stroke-linejoin="round"/>
<path d="M16.0417 1.00574V4.27525H12.7722" stroke="#00BFFF" stroke-linecap="round" stroke-linejoin="round"/>
</svg>
